<svg width="242" height="48" viewBox="0 0 242 48" fill="none" xmlns="http://www.w3.org/2000/svg">
<path d="M6.47324 20.2815V18.8299C4.39798 18.9258 2.80029 18.3809 1.68018 17.1952C0.560059 16.0007 0 14.1524 0 11.6502C0 9.17421 0.555717 7.32591 1.66715 6.10533C2.78727 4.87603 4.3893 4.30498 6.47324 4.39216V2.57437H10.5369V4.39216C11.5528 4.34857 12.4559 4.47063 13.246 4.75833C14.0449 5.03732 14.7178 5.4776 15.2649 6.07917C15.8119 6.68074 16.2243 7.44361 16.5022 8.36776C16.7887 9.29191 16.932 10.373 16.932 11.611C16.932 14.1045 16.3763 15.9528 15.2649 17.1559C14.1534 18.3503 12.5731 18.9083 10.5239 18.8299V20.2815H6.47324ZM3.62084 11.6241C3.62084 12.4523 3.68163 13.1542 3.80319 13.7296C3.92475 14.2963 4.10276 14.754 4.3372 15.1027C4.58033 15.4515 4.87989 15.6956 5.2359 15.8351C5.5919 15.9659 6.00435 16.0094 6.47324 15.9659V7.28232C6.01303 7.23872 5.60493 7.28667 5.24892 7.42617C4.89292 7.55695 4.59335 7.7967 4.35022 8.14544C4.11578 8.49418 3.93344 8.95625 3.80319 9.53167C3.68163 10.0984 3.62084 10.7958 3.62084 11.6241ZM10.5239 7.29539V15.9528H10.563C11.4747 16.0051 12.1607 15.6869 12.6209 14.9981C13.0811 14.3006 13.3112 13.1585 13.3112 11.5718C13.3112 10.7871 13.2504 10.1202 13.1288 9.5709C13.0159 9.02164 12.8466 8.577 12.6209 8.23698C12.4038 7.89696 12.1303 7.65285 11.8003 7.50463C11.479 7.35642 11.1143 7.28667 10.7062 7.29539H10.5239Z" fill="black"/>
<path d="M22.333 20.2815L22.854 17.7313L26.5139 5.5953L25.4589 5.43837L25.3547 2.58745C25.7889 2.58745 26.2274 2.58745 26.6702 2.58745C27.1217 2.58745 27.5776 2.58309 28.0378 2.57437L32.8699 2.49591L37.4416 17.7313L37.9626 20.2815H33.9119L32.9481 16.7767H27.3475L26.3837 20.2815H22.333ZM30.0566 5.73915L29.8873 6.71998L28.1159 13.5073H32.1927L30.4083 6.7069L30.239 5.73915H30.0566Z" fill="black"/>
<path d="M48.5549 12.4349V17.2867H50.6909C51.5245 17.2867 52.1627 17.0993 52.6056 16.7244C53.0484 16.3495 53.2698 15.7305 53.2698 14.8673C53.2698 14.074 53.0441 13.4724 52.5925 13.0626C52.1497 12.6441 51.4811 12.4349 50.5867 12.4349H48.5549ZM50.6519 9.66244C51.5723 9.66244 52.4362 9.73655 53.2438 9.88476C54.0513 10.033 54.7503 10.312 55.3407 10.7217C55.9399 11.1228 56.4088 11.6808 56.7474 12.3957C57.0947 13.1106 57.2684 14.0304 57.2684 15.155C57.2684 15.9048 57.1512 16.5936 56.9167 17.2213C56.691 17.8403 56.3176 18.3809 55.7966 18.8429C55.2843 19.2963 54.6114 19.6494 53.7778 19.9022C52.9529 20.1551 51.937 20.2815 50.73 20.2815H44.6475V2.57437H55.1323L54.976 5.84378H48.5419V9.66244H50.6519Z" fill="black"/>
<path d="M68.4177 14.9196V20.2815H64.354V2.57437H69.9937C71.0878 2.57437 72.0733 2.69207 72.9503 2.92747C73.836 3.16286 74.5871 3.52468 75.2035 4.01291C75.8287 4.50114 76.3063 5.12451 76.6363 5.88301C76.9662 6.63279 77.1312 7.52207 77.1312 8.55085C77.1312 10.6956 76.5581 12.2954 75.4119 13.3503C74.2658 14.3965 72.5161 14.9196 70.163 14.9196H68.4177ZM68.4177 11.6502H70.163C71.0747 11.6502 71.7694 11.4148 72.247 10.944C72.7332 10.4645 72.9763 9.70168 72.9763 8.65547C72.9763 8.1498 72.9112 7.71824 72.781 7.36078C72.6594 7.00333 72.4771 6.71126 72.2339 6.48458C71.9995 6.2579 71.7086 6.09661 71.3613 6.00071C71.0227 5.89609 70.6363 5.84378 70.2021 5.84378H68.4177V11.6502Z" fill="black"/>
<path d="M93.7582 20.2815V10.8656L94.0968 8.55085H93.9275L92.599 11.5456L88.1967 20.2815H83.7553V2.57437H87.7408V12.0164L87.4022 14.2919H87.5715L88.9 11.3102L93.2893 2.57437H97.7437V20.2815H93.7582Z" fill="black"/>
<path d="M105.197 2.54821L109.26 2.57437V10.4994L110.602 10.0417L112.178 6.03994C112.404 5.56915 112.69 5.11143 113.038 4.66679C113.394 4.22215 113.815 3.82982 114.301 3.4898C114.787 3.14979 115.347 2.87951 115.981 2.67899C116.615 2.46975 117.331 2.36077 118.13 2.35205L118.886 5.33375C118.608 5.3599 118.321 5.42965 118.026 5.54299C117.731 5.64761 117.444 5.79147 117.166 5.97455C116.897 6.15764 116.645 6.37996 116.411 6.64151C116.176 6.90306 115.981 7.19513 115.825 7.51771L114.08 11.4802L117.752 18.3198L118.521 20.2815H114.353L110.928 13.7557L109.26 14.1611V20.2815H105.197V2.54821Z" fill="black"/>
<path d="M124.529 20.2815L125.05 17.7313L128.71 5.5953L127.655 5.43837L127.551 2.58745C127.985 2.58745 128.423 2.58745 128.866 2.58745C129.318 2.58745 129.773 2.58309 130.234 2.57437L135.066 2.49591L139.637 17.7313L140.158 20.2815H136.108L135.144 16.7767H129.543L128.579 20.2815H124.529ZM132.252 5.73915L132.083 6.71998L130.312 13.5073H134.388L132.604 6.7069L132.435 5.73915H132.252Z" fill="black"/>
<path d="M10.2374 47.3086V33.1063H4.89726V47.3086H0.833576V29.6015H14.301V47.3086H10.2374Z" fill="black"/>
<path d="M29.8421 38.4027C29.8421 37.4088 29.7596 36.55 29.5947 35.8264C29.4384 35.0941 29.2083 34.4925 28.9043 34.0217C28.6091 33.5422 28.2401 33.1891 27.7973 32.9624C27.3631 32.7357 26.8725 32.6224 26.3255 32.6224C25.2054 32.6224 24.3414 33.0976 23.7336 34.0479C23.1258 34.9982 22.8218 36.4716 22.8218 38.4681C22.8218 40.4472 23.1127 41.9162 23.6945 42.8753C24.2849 43.8256 25.1576 44.3007 26.3124 44.3007C28.6656 44.3007 29.8421 42.3347 29.8421 38.4027ZM26.3255 47.6747C25.0838 47.6747 23.981 47.4786 23.0172 47.0862C22.0534 46.6852 21.2415 46.0967 20.5816 45.3208C19.9304 44.5448 19.4354 43.5858 19.0968 42.4437C18.7582 41.3016 18.5888 39.9851 18.5888 38.4942C18.5888 37.0121 18.7582 35.6956 19.0968 34.5448C19.4354 33.394 19.9304 32.4262 20.5816 31.6416C21.2415 30.8569 22.0534 30.2597 23.0172 29.8499C23.9897 29.4402 25.1055 29.2353 26.3645 29.2353C27.5975 29.2353 28.6916 29.4358 29.6467 29.8369C30.6106 30.2379 31.4181 30.8308 32.0693 31.6154C32.7292 32.3914 33.2285 33.3504 33.5672 34.4925C33.9058 35.6346 34.0751 36.9511 34.0751 38.4419C34.0751 39.9415 33.9015 41.2667 33.5541 42.4175C33.2155 43.5597 32.7162 44.523 32.0563 45.3077C31.4051 46.0836 30.5975 46.6721 29.6337 47.0732C28.6699 47.4742 27.5672 47.6747 26.3255 47.6747Z" fill="black"/>
<path d="M36.5971 32.9624L36.4017 29.6015H48.4495L48.2541 32.9624H44.4639V47.3086H40.4003V32.9624H36.5971Z" fill="black"/>
<path d="M62.0611 38.4027C62.0611 37.4088 61.9786 36.55 61.8136 35.8264C61.6573 35.0941 61.4272 34.4925 61.1233 34.0217C60.8281 33.5422 60.4591 33.1891 60.0162 32.9624C59.5821 32.7357 59.0915 32.6224 58.5445 32.6224C57.4243 32.6224 56.5604 33.0976 55.9526 34.0479C55.3447 34.9982 55.0408 36.4716 55.0408 38.4681C55.0408 40.4472 55.3317 41.9162 55.9135 42.8753C56.5039 43.8256 57.3766 44.3007 58.5314 44.3007C60.8845 44.3007 62.0611 42.3347 62.0611 38.4027ZM58.5445 47.6747C57.3028 47.6747 56.2 47.4786 55.2362 47.0862C54.2724 46.6852 53.4605 46.0967 52.8006 45.3208C52.1494 44.5448 51.6544 43.5858 51.3158 42.4437C50.9771 41.3016 50.8078 39.9851 50.8078 38.4942C50.8078 37.0121 50.9771 35.6956 51.3158 34.5448C51.6544 33.394 52.1494 32.4262 52.8006 31.6416C53.4605 30.8569 54.2724 30.2597 55.2362 29.8499C56.2087 29.4402 57.3245 29.2353 58.5835 29.2353C59.8165 29.2353 60.9106 29.4358 61.8657 29.8369C62.8295 30.2379 63.6371 30.8308 64.2883 31.6154C64.9482 32.3914 65.4475 33.3504 65.7861 34.4925C66.1248 35.6346 66.2941 36.9511 66.2941 38.4419C66.2941 39.9415 66.1204 41.2667 65.7731 42.4175C65.4345 43.5597 64.9352 44.523 64.2753 45.3077C63.6241 46.0836 62.8165 46.6721 61.8527 47.0732C60.8889 47.4742 59.7861 47.6747 58.5445 47.6747Z" fill="black"/>
<path d="M80.2395 47.3086V33.1063H75.0817V42.0906C75.0817 42.9276 74.9992 43.6599 74.8343 44.2876C74.678 44.9154 74.3914 45.4559 73.9746 45.9093C73.5578 46.3539 72.9891 46.7244 72.2684 47.0209C71.5564 47.3173 70.649 47.5527 69.5462 47.7271L68.908 44.5753C69.4377 44.34 69.8458 44.1045 70.1324 43.8692C70.4189 43.625 70.6273 43.3548 70.7575 43.0583C70.8878 42.7532 70.9616 42.4088 70.979 42.0252C71.005 41.6329 71.018 41.1708 71.018 40.639V29.6015H84.3031V47.3086H80.2395Z" fill="black"/>
<path d="M89.1195 29.5753L93.1832 29.6015V37.5265L94.5247 37.0688L96.1007 33.067C96.3264 32.5962 96.613 32.1385 96.9603 31.6939C97.3163 31.2492 97.7374 30.8569 98.2237 30.5169C98.7099 30.1769 99.27 29.9066 99.9039 29.7061C100.538 29.4968 101.254 29.3879 102.053 29.3791L102.808 32.3608C102.53 32.387 102.244 32.4567 101.949 32.5701C101.653 32.6747 101.367 32.8186 101.089 33.0016C100.82 33.1847 100.568 33.4071 100.334 33.6686C100.099 33.9302 99.9039 34.2222 99.7476 34.5448L98.0023 38.5073L101.675 45.3469L102.444 47.3086H98.2758L94.8503 40.7828L93.1832 41.1882V47.3086H89.1195V29.5753Z" fill="black"/>
<path d="M117.334 38.4027C117.334 37.4088 117.252 36.55 117.087 35.8264C116.931 35.0941 116.7 34.4925 116.397 34.0217C116.101 33.5422 115.732 33.1891 115.289 32.9624C114.855 32.7357 114.365 32.6224 113.818 32.6224C112.698 32.6224 111.834 33.0976 111.226 34.0479C110.618 34.9982 110.314 36.4716 110.314 38.4681C110.314 40.4472 110.605 41.9162 111.187 42.8753C111.777 43.8256 112.65 44.3007 113.805 44.3007C116.158 44.3007 117.334 42.3347 117.334 38.4027ZM113.818 47.6747C112.576 47.6747 111.473 47.4786 110.509 47.0862C109.546 46.6852 108.734 46.0967 108.074 45.3208C107.423 44.5448 106.928 43.5858 106.589 42.4437C106.25 41.3016 106.081 39.9851 106.081 38.4942C106.081 37.0121 106.25 35.6956 106.589 34.5448C106.928 33.394 107.423 32.4262 108.074 31.6416C108.734 30.8569 109.546 30.2597 110.509 29.8499C111.482 29.4402 112.598 29.2353 113.857 29.2353C115.09 29.2353 116.184 29.4358 117.139 29.8369C118.103 30.2379 118.91 30.8308 119.562 31.6154C120.221 32.3914 120.721 33.3504 121.059 34.4925C121.398 35.6346 121.567 36.9511 121.567 38.4419C121.567 39.9415 121.394 41.2667 121.046 42.4175C120.708 43.5597 120.208 44.523 119.549 45.3077C118.897 46.0836 118.09 46.6721 117.126 47.0732C116.162 47.4742 115.059 47.6747 113.818 47.6747Z" fill="black"/>
<path d="M125.861 29.6015H132.83C133.594 29.6015 134.301 29.693 134.953 29.8761C135.604 30.0505 136.168 30.3207 136.646 30.6869C137.123 31.0531 137.497 31.5152 137.766 32.0731C138.035 32.6311 138.17 33.2894 138.17 34.0479C138.17 34.9807 137.983 35.7741 137.61 36.428C137.245 37.0819 136.628 37.5614 135.76 37.8665V38.0235C136.203 38.1717 136.602 38.3591 136.958 38.5858C137.323 38.8125 137.631 39.0958 137.883 39.4358C138.144 39.7671 138.343 40.1595 138.482 40.6128C138.621 41.0662 138.691 41.5893 138.691 42.1821C138.691 42.9842 138.573 43.7035 138.339 44.34C138.113 44.9677 137.74 45.5039 137.219 45.9485C136.707 46.3844 136.034 46.7201 135.2 46.9555C134.375 47.1909 133.359 47.3086 132.152 47.3086H125.861V29.6015ZM129.769 39.462V44.3138H132.035C132.869 44.3138 133.507 44.1263 133.95 43.7515C134.393 43.3766 134.614 42.7576 134.614 41.8944C134.614 41.1011 134.406 40.4995 133.989 40.0897C133.581 39.6712 132.929 39.462 132.035 39.462H129.769ZM129.756 32.3739V36.6895H132.009C132.782 36.6895 133.346 36.5065 133.702 36.1403C134.058 35.7741 134.236 35.2161 134.236 34.4663C134.236 33.7253 134.037 33.1935 133.637 32.8709C133.238 32.5396 132.647 32.3739 131.866 32.3739H129.756Z" fill="black"/>
<path d="M152.258 0.335388H170.932C172.98 0.335388 174.877 0.575183 176.622 1.05478C178.367 1.51153 179.88 2.2195 181.16 3.17868C182.439 4.13786 183.44 5.34826 184.161 6.80987C184.883 8.27148 185.243 9.99573 185.243 11.9826C185.243 14.4262 184.743 16.5045 183.743 18.2173C182.765 19.9301 181.113 21.1862 178.786 21.9855V22.3966C179.973 22.7848 181.043 23.2758 181.997 23.8696C182.975 24.4634 183.801 25.2056 184.476 26.0963C185.174 26.9641 185.709 27.9918 186.081 29.1794C186.453 30.3669 186.64 31.7372 186.64 33.2902C186.64 35.3912 186.326 37.2753 185.697 38.9425C185.092 40.5868 184.092 41.9913 182.695 43.156C181.322 44.2979 179.519 45.1772 177.285 45.7938C175.074 46.4104 172.352 46.7187 169.117 46.7187H152.258V0.335388ZM162.73 26.1648V38.874H168.803C171.037 38.874 172.747 38.383 173.934 37.401C175.121 36.4189 175.714 34.7975 175.714 32.5365C175.714 30.4583 175.156 28.8825 174.039 27.8091C172.945 26.7129 171.2 26.1648 168.803 26.1648H162.73ZM162.695 7.59777V18.9024H168.733C170.804 18.9024 172.317 18.4228 173.271 17.4637C174.225 16.5045 174.702 15.0429 174.702 13.0788C174.702 11.1376 174.167 9.74451 173.097 8.89952C172.026 8.03169 170.444 7.59777 168.349 7.59777H162.695Z" fill="black"/>
<path d="M194.39 46.7187V0.335388H210.76L217.462 21.8827L218.09 27.7406H218.334L218.928 21.8485L225.63 0.335388H242V46.7187H231.319L231.528 21.5402L231.843 12.1196H231.494L229.748 18.8682L228.98 22.2596L223.012 39.8332H213.378L207.374 22.2596L206.641 18.8682L204.931 12.1196H204.582L204.861 21.5402L205.071 46.7187H194.39Z" fill="black"/>
</svg>
