<svg width="225" height="45" viewBox="0 0 225 45" fill="none" xmlns="http://www.w3.org/2000/svg">
<path d="M6.0185 18.5449V17.1953C4.08903 17.2844 2.60358 16.7778 1.56215 15.6754C0.520716 14.5649 0 12.8464 0 10.52C0 8.21792 0.516679 6.49945 1.55004 5.36462C2.59147 4.22168 4.08096 3.69074 6.0185 3.7718V2.0817H9.79672V3.7718C10.7413 3.73127 11.5809 3.84475 12.3155 4.11225C13.0583 4.37164 13.6839 4.78099 14.1925 5.3403C14.7011 5.89961 15.0846 6.60888 15.3429 7.46812C15.6094 8.32735 15.7426 9.33249 15.7426 10.4835C15.7426 12.8018 15.2259 14.5203 14.1925 15.6389C13.1592 16.7494 11.6899 17.2682 9.78461 17.1953V18.5449H6.0185ZM3.36649 10.4957C3.36649 11.2658 3.423 11.9183 3.53602 12.4533C3.64905 12.9802 3.81455 13.4057 4.03252 13.73C4.25857 14.0542 4.53709 14.2812 4.86809 14.4109C5.19908 14.5325 5.58256 14.573 6.0185 14.5325V6.45892C5.59063 6.41839 5.21119 6.46298 4.8802 6.59267C4.5492 6.71426 4.27068 6.93718 4.04463 7.26141C3.82666 7.58565 3.65712 8.01527 3.53602 8.55026C3.423 9.07715 3.36649 9.72563 3.36649 10.4957ZM9.78461 6.47108V14.5203H9.82094C10.6686 14.5689 11.3064 14.2731 11.7343 13.6327C12.1621 12.9842 12.3761 11.9223 12.3761 10.4471C12.3761 9.71752 12.3196 9.09742 12.2065 8.58674C12.1016 8.07606 11.9442 7.66266 11.7343 7.34653C11.5324 7.03039 11.2781 6.80343 10.9714 6.66563C10.6727 6.52782 10.3336 6.46298 9.95415 6.47108H9.78461Z" fill="white"/>
<path d="M20.7642 18.5449L21.2486 16.1739L24.6514 4.89042L23.6705 4.74451L23.5736 2.09386C23.9773 2.09386 24.385 2.09386 24.7967 2.09386C25.2165 2.09386 25.6403 2.08981 26.0682 2.0817L30.5609 2.00875L34.8114 16.1739L35.2958 18.5449H31.5297L30.6335 15.2863H25.4264L24.5303 18.5449H20.7642ZM27.9452 5.02417L27.7878 5.93609L26.1409 12.2466H29.9312L28.2722 5.92393L28.1147 5.02417H27.9452Z" fill="white"/>
<path d="M45.144 11.2495V15.7605H47.13C47.905 15.7605 48.4984 15.5862 48.9101 15.2377C49.3219 14.8891 49.5277 14.3136 49.5277 13.5111C49.5277 12.7735 49.3178 12.2142 48.898 11.8332C48.4863 11.4441 47.8647 11.2495 47.0331 11.2495H45.144ZM47.0937 8.67185C47.9494 8.67185 48.7527 8.74075 49.5035 8.87855C50.2543 9.01636 50.9042 9.27575 51.4532 9.65673C52.0102 10.0296 52.4462 10.5484 52.761 11.2131C53.0839 11.8778 53.2454 12.7329 53.2454 13.7786C53.2454 14.4757 53.1364 15.1161 52.9184 15.6997C52.7085 16.2752 52.3614 16.7778 51.877 17.2074C51.4007 17.6289 50.775 17.9572 50 18.1923C49.2331 18.4274 48.2885 18.5449 47.1663 18.5449H41.5111V2.0817H51.2594L51.1141 5.12144H45.1319V8.67185H47.0937Z" fill="white"/>
<path d="M63.6115 13.5598V18.5449H59.8333V2.0817H65.0768C66.094 2.0817 67.0103 2.19113 67.8257 2.40999C68.6491 2.62885 69.3475 2.96525 69.9206 3.41919C70.5019 3.87312 70.9459 4.4527 71.2527 5.15792C71.5595 5.85503 71.7129 6.68184 71.7129 7.63834C71.7129 9.63241 71.1801 11.1199 70.1144 12.1007C69.0488 13.0734 67.422 13.5598 65.2342 13.5598H63.6115ZM63.6115 10.52H65.2342C66.0819 10.52 66.7277 10.3012 67.1718 9.86343C67.6238 9.4176 67.8499 8.70833 67.8499 7.73561C67.8499 7.26547 67.7893 6.86422 67.6683 6.53188C67.5552 6.19953 67.3857 5.92798 67.1596 5.71723C66.9417 5.50647 66.6712 5.35651 66.3483 5.26735C66.0334 5.17007 65.6742 5.12144 65.2705 5.12144H63.6115V10.52Z" fill="white"/>
<path d="M87.1719 18.5449V9.79048L87.4867 7.63834H87.3293L86.0941 10.4227L82.0011 18.5449H77.8717V2.0817H81.5772V10.8605L81.2624 12.9761H81.4198L82.655 10.2039L86.7359 2.0817H90.8774V18.5449H87.1719Z" fill="white"/>
<path d="M97.8069 2.05738L101.585 2.0817V9.45003L102.832 9.02446L104.298 5.30382C104.508 4.8661 104.774 4.44054 105.097 4.02713C105.428 3.61373 105.819 3.24896 106.272 2.93283C106.724 2.6167 107.244 2.36541 107.834 2.17897C108.423 1.98443 109.089 1.88311 109.832 1.875L110.534 4.64724C110.276 4.67156 110.009 4.73641 109.735 4.84178C109.46 4.93905 109.194 5.0728 108.936 5.24303C108.685 5.41325 108.451 5.61996 108.233 5.86313C108.015 6.10631 107.834 6.37786 107.688 6.67778L106.066 10.3619L109.481 16.7211L110.195 18.5449H106.32L103.135 12.4776L101.585 12.8545V18.5449H97.8069V2.05738Z" fill="white"/>
<path d="M115.781 18.5449L116.265 16.1739L119.668 4.89042L118.687 4.74451L118.59 2.09386C118.994 2.09386 119.402 2.09386 119.813 2.09386C120.233 2.09386 120.657 2.08981 121.085 2.0817L125.578 2.00875L129.828 16.1739L130.312 18.5449H126.546L125.65 15.2863H120.443L119.547 18.5449H115.781ZM122.962 5.02417L122.805 5.93609L121.158 12.2466H124.948L123.289 5.92393L123.131 5.02417H122.962Z" fill="white"/>
<path d="M9.5182 43.6734V30.4688H4.55324V43.6734H0.775019V27.2102H13.2964V43.6734H9.5182Z" fill="white"/>
<path d="M27.7458 35.3932C27.7458 34.4691 27.6691 33.6707 27.5157 32.9979C27.3704 32.317 27.1564 31.7576 26.8739 31.3199C26.5994 30.8741 26.2563 30.5458 25.8446 30.335C25.4409 30.1243 24.9848 30.0189 24.4762 30.0189C23.4347 30.0189 22.6315 30.4607 22.0663 31.3442C21.5012 32.2278 21.2187 33.5977 21.2187 35.454C21.2187 37.294 21.4891 38.6599 22.03 39.5515C22.579 40.4351 23.3903 40.8769 24.4641 40.8769C26.6519 40.8769 27.7458 39.049 27.7458 35.3932ZM24.4762 44.0139C23.3217 44.0139 22.2964 43.8315 21.4003 43.4667C20.5042 43.0938 19.7494 42.5467 19.1358 41.8253C18.5303 41.1038 18.0701 40.2122 17.7553 39.1503C17.4404 38.0884 17.283 36.8644 17.283 35.4783C17.283 34.1003 17.4404 32.8763 17.7553 31.8063C18.0701 30.7363 18.5303 29.8365 19.1358 29.107C19.7494 28.3775 20.5042 27.8222 21.4003 27.4412C22.3045 27.0602 23.3419 26.8697 24.5125 26.8697C25.6589 26.8697 26.6761 27.0562 27.5641 27.4291C28.4602 27.8019 29.211 28.3531 29.8165 29.0827C30.4301 29.8041 30.8943 30.6958 31.2091 31.7576C31.524 32.8195 31.6814 34.0435 31.6814 35.4296C31.6814 36.8239 31.52 38.056 31.197 39.126C30.8822 40.1878 30.418 41.0836 29.8044 41.8131C29.1989 42.5345 28.4481 43.0817 27.552 43.4546C26.6559 43.8274 25.6306 44.0139 24.4762 44.0139Z" fill="white"/>
<path d="M34.0262 30.335L33.8446 27.2102H45.046L44.8644 30.335H41.3404V43.6734H37.5622V30.335H34.0262Z" fill="white"/>
<path d="M57.7014 35.3932C57.7014 34.4691 57.6247 33.6707 57.4713 32.9979C57.326 32.317 57.1121 31.7576 56.8295 31.3199C56.555 30.8741 56.2119 30.5458 55.8002 30.335C55.3966 30.1243 54.9404 30.0189 54.4318 30.0189C53.3904 30.0189 52.5871 30.4607 52.022 31.3442C51.4569 32.2278 51.1743 33.5977 51.1743 35.454C51.1743 37.294 51.4448 38.6599 51.9857 39.5515C52.5346 40.4351 53.346 40.8769 54.4197 40.8769C56.6075 40.8769 57.7014 39.049 57.7014 35.3932ZM54.4318 44.0139C53.2774 44.0139 52.2521 43.8315 51.356 43.4667C50.4598 43.0938 49.705 42.5467 49.0915 41.8253C48.486 41.1038 48.0258 40.2122 47.711 39.1503C47.3961 38.0884 47.2387 36.8644 47.2387 35.4783C47.2387 34.1003 47.3961 32.8763 47.711 31.8063C48.0258 30.7363 48.486 29.8365 49.0915 29.107C49.705 28.3775 50.4598 27.8222 51.356 27.4412C52.2601 27.0602 53.2975 26.8697 54.4681 26.8697C55.6145 26.8697 56.6317 27.0562 57.5198 27.4291C58.4159 27.8019 59.1667 28.3531 59.7722 29.0827C60.3857 29.8041 60.8499 30.6958 61.1648 31.7576C61.4796 32.8195 61.6371 34.0435 61.6371 35.4296C61.6371 36.8239 61.4756 38.056 61.1527 39.126C60.8378 40.1878 60.3736 41.0836 59.7601 41.8131C59.1546 42.5345 58.4038 43.0817 57.5077 43.4546C56.6116 43.8274 55.5863 44.0139 54.4318 44.0139Z" fill="white"/>
<path d="M74.6028 43.6734V30.4688H69.8074V38.822C69.8074 39.6002 69.7307 40.2811 69.5773 40.8647C69.432 41.4483 69.1656 41.9509 68.7781 42.3724C68.3905 42.7858 67.8618 43.1303 67.1917 43.4059C66.5297 43.6815 65.6861 43.9004 64.6608 44.0625L64.0674 41.1322C64.5599 40.9133 64.9393 40.6945 65.2057 40.4756C65.4721 40.2486 65.6659 39.9974 65.787 39.7218C65.9081 39.438 65.9767 39.1179 65.9928 38.7612C66.0171 38.3964 66.0292 37.9668 66.0292 37.4724V27.2102H78.381V43.6734H74.6028Z" fill="white"/>
<path d="M82.859 27.1859L86.6372 27.2102V34.5785L87.8845 34.153L89.3498 30.4323C89.5597 29.9946 89.8261 29.569 90.149 29.1556C90.48 28.7422 90.8716 28.3775 91.3237 28.0613C91.7758 27.7452 92.2965 27.4939 92.8858 27.3075C93.4752 27.1129 94.1412 27.0116 94.8839 27.0035L95.5863 29.7757C95.3279 29.8001 95.0615 29.8649 94.787 29.9703C94.5125 30.0676 94.2461 30.2013 93.9878 30.3715C93.7375 30.5417 93.5034 30.7485 93.2854 30.9916C93.0675 31.2348 92.8858 31.5064 92.7405 31.8063L91.1178 35.4904L94.5327 41.8496L95.2472 43.6734H91.3721L88.1873 37.6061L86.6372 37.983V43.6734H82.859V27.1859Z" fill="white"/>
<path d="M109.092 35.3932C109.092 34.4691 109.015 33.6707 108.862 32.9979C108.716 32.317 108.502 31.7576 108.22 31.3199C107.945 30.8741 107.602 30.5458 107.191 30.335C106.787 30.1243 106.331 30.0189 105.822 30.0189C104.781 30.0189 103.978 30.4607 103.412 31.3442C102.847 32.2278 102.565 33.5977 102.565 35.454C102.565 37.294 102.835 38.6599 103.376 39.5515C103.925 40.4351 104.736 40.8769 105.81 40.8769C107.998 40.8769 109.092 39.049 109.092 35.3932ZM105.822 44.0139C104.668 44.0139 103.642 43.8315 102.746 43.4667C101.85 43.0938 101.095 42.5467 100.482 41.8253C99.8764 41.1038 99.4162 40.2122 99.1013 39.1503C98.7865 38.0884 98.6291 36.8644 98.6291 35.4783C98.6291 34.1003 98.7865 32.8763 99.1013 31.8063C99.4162 30.7363 99.8764 29.8365 100.482 29.107C101.095 28.3775 101.85 27.8222 102.746 27.4412C103.651 27.0602 104.688 26.8697 105.859 26.8697C107.005 26.8697 108.022 27.0562 108.91 27.4291C109.806 27.8019 110.557 28.3531 111.163 29.0827C111.776 29.8041 112.24 30.6958 112.555 31.7576C112.87 32.8195 113.027 34.0435 113.027 35.4296C113.027 36.8239 112.866 38.056 112.543 39.126C112.228 40.1878 111.764 41.0836 111.15 41.8131C110.545 42.5345 109.794 43.0817 108.898 43.4546C108.002 43.8274 106.977 44.0139 105.822 44.0139Z" fill="white"/>
<path d="M117.02 27.2102H123.499C124.209 27.2102 124.867 27.2953 125.472 27.4655C126.078 27.6277 126.603 27.8789 127.047 28.2194C127.491 28.5598 127.838 28.9895 128.088 29.5082C128.338 30.027 128.464 30.639 128.464 31.3442C128.464 32.2116 128.29 32.9492 127.943 33.5572C127.604 34.1651 127.031 34.6109 126.223 34.8947V35.0406C126.635 35.1784 127.006 35.3526 127.337 35.5634C127.676 35.7742 127.963 36.0376 128.197 36.3537C128.439 36.6618 128.625 37.0265 128.754 37.448C128.883 37.8695 128.948 38.3559 128.948 38.9071C128.948 39.6529 128.839 40.3216 128.621 40.9133C128.411 41.497 128.064 41.9955 127.58 42.4089C127.103 42.8142 126.478 43.1263 125.703 43.3451C124.936 43.564 123.991 43.6734 122.869 43.6734H117.02V27.2102ZM120.653 36.378V40.889H122.76C123.535 40.889 124.128 40.7147 124.54 40.3662C124.952 40.0176 125.158 39.4421 125.158 38.6396C125.158 37.902 124.964 37.3427 124.576 36.9617C124.197 36.5726 123.591 36.378 122.76 36.378H120.653ZM120.641 29.7879V33.8003H122.736C123.454 33.8003 123.979 33.6301 124.31 33.2897C124.641 32.9492 124.806 32.4304 124.806 31.7333C124.806 31.0443 124.621 30.5499 124.249 30.2499C123.878 29.9419 123.329 29.7879 122.602 29.7879H120.641Z" fill="white"/>
<path d="M141.562 0H158.925C160.829 0 162.592 0.22295 164.215 0.668852C165.837 1.09352 167.244 1.75176 168.434 2.64356C169.623 3.53536 170.554 4.66073 171.224 6.01966C171.895 7.3786 172.231 8.98172 172.231 10.829C172.231 13.101 171.765 15.0332 170.835 16.6257C169.926 18.2182 168.39 19.3861 166.227 20.1292V20.5114C167.33 20.8724 168.325 21.3289 169.212 21.881C170.121 22.4331 170.889 23.1232 171.517 23.9513C172.166 24.7581 172.663 25.7136 173.009 26.8178C173.356 27.9219 173.529 29.1959 173.529 30.6398C173.529 32.5932 173.237 34.345 172.652 35.895C172.09 37.4238 171.16 38.7297 169.861 39.8126C168.585 40.8743 166.908 41.6917 164.831 42.265C162.776 42.8383 160.245 43.125 157.237 43.125H141.562V0ZM151.298 24.015V35.8313H156.945C159.022 35.8313 160.612 35.3748 161.716 34.4618C162.819 33.5487 163.371 32.0412 163.371 29.9391C163.371 28.0068 162.852 26.5417 161.813 25.5438C160.796 24.5246 159.174 24.015 156.945 24.015H151.298ZM151.266 6.75221V17.2627H156.88C158.806 17.2627 160.212 16.8168 161.099 15.925C161.986 15.0332 162.43 13.6743 162.43 11.8482C162.43 10.0434 161.932 8.74815 160.937 7.96252C159.942 7.15565 158.47 6.75221 156.523 6.75221H151.266Z" fill="white"/>
<path d="M180.734 43.125V0H195.955L202.186 20.0337L202.77 25.4801H202.997L203.549 20.0018L209.78 0H225V43.125H215.069L215.264 19.7152L215.556 10.9564H215.232L213.609 17.2309L212.895 20.384L207.346 36.7231H198.389L192.807 20.384L192.125 17.2309L190.535 10.9564H190.21L190.47 19.7152L190.665 43.125H180.734Z" fill="white"/>
</svg>
