<svg width="43" height="54" viewBox="0 0 43 54" fill="none" xmlns="http://www.w3.org/2000/svg">
<path d="M25.9999 40C25.9999 34.4 18.6666 21 14.9999 15C11.6666 19.8333 4.39992 30.2 1.99992 33C-1.00008 36.5 1 46 9 50C17 54 25.9999 47 25.9999 40Z" fill="#4384F3"/>
<path d="M21.0679 23.6179C18.0483 18.1596 14.9851 13.5203 14.9546 13.4741C14.6662 13.0384 14.1785 12.7762 13.656 12.7762C13.1334 12.7762 12.6457 13.0383 12.3573 13.4741C12.3268 13.5203 9.26357 18.1596 6.24399 23.6179C2.10078 31.1072 0 36.5482 0 39.7899C0 43.6212 1.43302 47.0765 4.03503 49.5193C6.53261 51.864 9.9494 53.1553 13.656 53.1553C17.3624 53.1553 20.7792 51.864 23.2769 49.5193C25.8789 47.0765 27.3119 43.6212 27.3119 39.7899C27.3119 36.5482 25.211 31.1072 21.0679 23.6179ZM13.656 50.0408C7.44933 50.0408 3.11447 45.8254 3.11447 39.7899C3.11447 34.9142 9.838 23.2538 13.6561 17.2064C17.4742 23.2529 24.1973 34.9119 24.1973 39.7899C24.1973 45.8254 19.8625 50.0408 13.656 50.0408Z" fill="black"/>
<path d="M38.7344 6.73018C36.9391 3.48531 35.1731 0.810204 35.0987 0.697872C34.8104 0.262039 34.3227 0 33.8001 0C33.2774 0 32.7898 0.262039 32.5014 0.697976C32.4271 0.810204 30.6609 3.48542 28.8659 6.73028C26.3315 11.3113 25.0996 14.5355 25.0996 16.5871C25.0996 19.0271 26.0172 21.2324 27.6833 22.7965C29.2766 24.2923 31.4489 25.1161 33.8001 25.1161C36.1513 25.1161 38.3236 24.2923 39.917 22.7965C41.5831 21.2325 42.5006 19.0271 42.5006 16.5871C42.5006 14.5354 41.2687 11.3112 38.7344 6.73018ZM33.8001 22.0014C30.5112 22.0014 28.2142 19.7749 28.2142 16.5871C28.2142 14.2616 31.2534 8.5793 33.8003 4.45259C36.3472 8.57816 39.3861 14.2593 39.3861 16.5871C39.3861 19.7749 37.0891 22.0014 33.8001 22.0014Z" fill="black"/>
</svg>
