<svg width="61" height="48" viewBox="0 0 61 48" fill="none" xmlns="http://www.w3.org/2000/svg">
<path d="M47.5 17.5002C51.5 17.9002 52.5 24.6669 52.5 28.0002V45L47.5 41.5L39.5 45C39 39.3334 38.3 26.9002 39.5 22.5002C41 17.0002 42.5 17.0002 47.5 17.5002Z" fill="#4384F3"/>
<path d="M59.1135 0H1.78454C0.798997 0 0 0.798997 0 1.78454V37.6157C0 38.6012 0.798997 39.4002 1.78454 39.4002H37.6216V45.677C37.6216 47.1251 39.263 47.972 40.4433 47.1293L45.677 43.3915L50.9107 47.1293C52.0896 47.9711 53.7324 47.1269 53.7324 45.677V39.4002H59.1134C60.0989 39.4002 60.8979 38.6012 60.8979 37.6157V1.78454C60.8981 0.798997 60.0991 0 59.1135 0ZM50.1634 42.2097L46.7142 39.7463C46.0938 39.3031 45.2603 39.3031 44.6399 39.7463L41.1907 42.2097V30.8363C43.8996 32.6678 47.4536 32.6682 50.1634 30.8363V42.2097ZM41.2157 24.1789C41.2157 21.7189 43.217 19.7176 45.677 19.7176C48.1371 19.7176 50.1384 21.7189 50.1384 24.1789C50.1384 26.639 48.1371 28.6403 45.677 28.6403C43.217 28.6403 41.2157 26.639 41.2157 24.1789ZM57.329 35.8311H53.7325V24.1793C53.7325 19.8789 50.1944 16.1485 45.6771 16.1485C41.1676 16.1485 37.6217 19.8713 37.6217 24.1793V35.8311H3.56908V3.56908H57.329V35.8311Z" fill="black"/>
<path d="M8.95055 10.7351H51.9474C52.933 10.7351 53.732 9.93609 53.732 8.95055C53.732 7.96501 52.933 7.16602 51.9474 7.16602H8.95055C7.96501 7.16602 7.16602 7.96501 7.16602 8.95055C7.16602 9.93609 7.96501 10.7351 8.95055 10.7351Z" fill="black"/>
<path d="M8.95055 17.9016H28.6574C29.643 17.9016 30.442 17.1026 30.442 16.1171C30.442 15.1315 29.643 14.3325 28.6574 14.3325H8.95055C7.96501 14.3325 7.16602 15.1315 7.16602 16.1171C7.16602 17.1026 7.96501 17.9016 8.95055 17.9016Z" fill="black"/>
<path d="M8.95055 25.0671H28.6574C29.643 25.0671 30.442 24.2681 30.442 23.2826C30.442 22.297 29.643 21.498 28.6574 21.498H8.95055C7.96501 21.498 7.16602 22.297 7.16602 23.2826C7.16602 24.2682 7.96501 25.0671 8.95055 25.0671Z" fill="black"/>
</svg>
