<svg width="35" height="54" viewBox="0 0 35 54" fill="none" xmlns="http://www.w3.org/2000/svg">

<path d="M14.0001 4.99997C17.0001 1.99997 20.0001 2.49997 22.5001 4.99997C24.1701 6.66991 25.259 13.5686 25.767 18.4197C25.8082 18.813 25.8456 19.1929 25.8791 19.5555C26.1903 21.6884 27.1744 25.0066 29.5 27C32.9999 30 31 31.5 26.0001 34.5C21.0002 37.5 22.5001 37 20 39.5C17.9999 41.5 15.1667 38.6667 14.0001 37H8.00012C7.16678 36 5.20012 33.5 4.00012 31.5C2.80012 29.5 6.16678 25.6667 8.00012 24C9.00012 18.6667 11.6001 7.39997 14.0001 4.99997Z" fill="#4384F3"/>
<path d="M26.4284 38.1453C29.3432 37.3728 31.5562 34.9594 32.0659 31.9974C32.6735 28.4689 30.8831 25.0816 27.7447 23.5978L24.7469 6.40356C24.1 2.69307 20.8967 0 17.1302 0C13.3638 0 10.1604 2.69307 9.51352 6.40367L6.51585 23.5978C3.37739 25.0816 1.58703 28.4689 2.19458 31.9974C2.70433 34.9595 4.91734 37.3728 7.83217 38.1454C8.50377 38.3234 9.18431 38.412 9.86152 38.412C10.4559 38.412 11.0473 38.343 11.6277 38.207C13.0374 39.6164 14.9837 40.4895 17.1302 40.4895C19.2769 40.4895 21.2235 39.6162 22.6335 38.2064C23.8748 38.4973 25.1677 38.4795 26.4284 38.1453ZM21.8021 32.703C21.8021 35.2791 19.7063 37.3749 17.1302 37.3749C14.5541 37.3749 12.4583 35.2791 12.4583 32.703C12.4583 31.843 11.7611 31.1457 10.9011 31.1457C10.041 31.1457 9.34377 31.843 9.34377 32.703C9.34377 33.6128 9.5021 34.4859 9.7902 35.2982C9.40627 35.2917 9.01913 35.2378 8.63002 35.1347C6.91586 34.6804 5.5631 33.2073 5.26389 31.4689C4.86419 29.1474 6.17968 26.9296 8.39186 26.1954C8.93608 26.0148 9.33703 25.5498 9.43555 24.9849L12.5819 6.93854C12.9681 4.72284 14.8811 3.11457 17.1302 3.11457C19.3793 3.11457 21.2923 4.72284 21.6786 6.93854L24.825 24.9849C24.9235 25.5498 25.3244 26.0148 25.8687 26.1954C28.0808 26.9296 29.3963 29.1474 28.9966 31.4689C28.6974 33.2072 27.3447 34.6804 25.6305 35.1347C25.2415 35.2378 24.8542 35.2919 24.4703 35.2983C24.7584 34.486 24.9167 33.6128 24.9167 32.703C24.9167 31.843 24.2195 31.1457 23.3595 31.1457C22.4994 31.1457 21.8021 31.843 21.8021 32.703Z" fill="black"/>
<path d="M32.7029 50.0409C29.9937 50.0409 27.6544 48.4351 26.582 46.126L27.8537 46.7619C28.6228 47.1465 29.5584 46.8348 29.943 46.0655C30.3276 45.2962 30.0159 44.3609 29.2466 43.9761L25.0938 41.8997C24.4943 41.5999 23.7702 41.7174 23.2963 42.1914L20.1817 45.306C19.5735 45.9142 19.5735 46.9002 20.1817 47.5083C20.4857 47.8125 20.8843 47.9645 21.2828 47.9645C21.6814 47.9645 22.0799 47.8125 22.3839 47.5083L23.3802 46.5121C24.7177 50.3745 28.3914 53.1555 32.7029 53.1555C33.563 53.1555 34.2602 52.4582 34.2602 51.5982C34.2602 50.7381 33.563 50.0409 32.7029 50.0409Z" fill="black"/>
<path d="M10.9639 42.1914C10.49 41.7174 9.76554 41.5999 9.1664 41.8997L5.01363 43.9761C4.24433 44.3607 3.93256 45.2961 4.31721 46.0654C4.70176 46.8347 5.63717 47.1466 6.40647 46.7618L7.67763 46.1263C6.60497 48.435 4.26634 50.0407 1.55729 50.0407C0.697249 50.0407 0 50.738 0 51.598C0 52.4581 0.697249 53.1553 1.55729 53.1553C5.869 53.1553 9.54108 50.3731 10.8783 46.5104L11.8762 47.5083C12.1803 47.8124 12.5788 47.9644 12.9774 47.9644C13.3759 47.9644 13.7745 47.8124 14.0785 47.5082C14.6867 46.9 14.6867 45.914 14.0785 45.3059L10.9639 42.1914Z" fill="black"/>
</svg>
