<svg width="54" height="49" viewBox="0 0 54 49" fill="none" xmlns="http://www.w3.org/2000/svg">
<path d="M33 31.0007C35.4289 29.1763 37 26.2716 37 23C37 17.4772 32.5228 13 27 13C21.4772 13 17 17.4772 17 23C17 26.2716 18.5711 29.1763 21 31.0007V47.5L27 43.5L33 47.5V31.0007Z" fill="#4384F3"/>
<path d="M51.5985 0H1.55691C0.69708 0 0 0.69708 0 1.55691V35.9139C0 36.7737 0.69708 37.4708 1.55691 37.4708H17.9871V47.2442C17.9871 47.7915 18.2746 48.2987 18.7441 48.5799C19.2138 48.8612 19.7966 48.875 20.279 48.6167L26.5865 45.2391L32.8942 48.6167C33.3763 48.8749 33.9591 48.8612 34.4291 48.5799C34.8985 48.2987 35.1861 47.7915 35.1861 47.2442V37.4708H51.5986C52.4584 37.4708 53.1555 36.7737 53.1555 35.9139V1.55691C53.1554 0.696977 52.4583 0 51.5985 0ZM26.6457 32.9083C15.4105 32.4419 15.4134 16.3817 26.6458 15.917C32.9774 15.8551 37.1464 22.8862 34.1148 28.4125C34.0727 28.4755 34.0363 28.5424 34.0035 28.6114C33.6072 29.3075 33.1164 29.9421 32.5476 30.4975C32.539 30.5058 32.5302 30.5137 32.5218 30.5222C30.9976 31.9977 28.9262 32.9083 26.6457 32.9083ZM26.6457 12.8032C19.0329 12.6769 13.2713 20.474 15.5424 27.7203H13.2538C12.7444 25.9584 11.3587 24.5649 9.60157 24.0444V13.4125C11.354 12.8934 12.7372 11.5056 13.2496 9.7503H39.9463C40.4554 11.4903 41.8213 12.8706 43.5536 13.3996V24.0573C41.8169 24.5875 40.4483 25.9739 39.9423 27.7203H37.7488C40.02 20.4733 34.2581 12.6772 26.6457 12.8032ZM21.1009 34.603C22.2985 35.2603 23.624 35.711 25.0296 35.9086V42.5407L21.1009 44.6444V34.603ZM28.1433 42.5407V35.9253C29.5467 35.7429 30.8718 35.3073 32.0721 34.6666V44.6445L28.1433 42.5407ZM50.0416 34.3568H35.186V32.2467C35.589 31.8057 35.9584 31.3333 36.2904 30.834H41.2895C41.7077 30.834 42.1085 30.6656 42.4013 30.367C42.6941 30.0683 42.8544 29.6642 42.8461 29.246L42.8447 29.2032C42.8515 27.9567 43.8676 26.9417 45.1156 26.9377C45.9736 26.935 46.6675 26.2387 46.6675 25.3807V12.076C46.6675 11.2181 45.9735 10.5218 45.1156 10.5191C43.869 10.5152 42.8538 9.50213 42.8448 8.25754C42.8452 8.2428 42.8456 8.22806 42.8458 8.21322C42.8735 7.36968 42.1329 6.61957 41.289 6.63648H11.9066C11.0628 6.61957 10.3222 7.36979 10.3498 8.21322C10.35 8.22754 10.3504 8.24176 10.3509 8.25743C10.342 9.49995 9.33347 10.5091 8.09136 10.5194C7.21586 10.4921 6.48619 11.1995 6.48785 12.0757V25.3811C6.48629 26.2573 7.21576 26.9646 8.09126 26.9373C9.33451 26.9476 10.3436 27.9584 10.351 29.2021C10.3503 29.2194 10.3498 29.2366 10.3496 29.2538C10.3199 30.0986 11.0613 30.8509 11.9063 30.834H17.0008C17.3001 31.284 17.6298 31.7119 17.9871 32.1148V34.3568H3.11382V3.11382H50.0416V34.3568Z" fill="black"/>
<path d="M26.6457 19.1155C23.7302 19.1155 21.3584 21.4918 21.3584 24.4126C21.6489 31.4401 31.6434 31.4382 31.9329 24.4126C31.9328 21.4917 29.561 19.1155 26.6457 19.1155ZM26.6457 26.596C25.4472 26.596 24.4722 25.6165 24.4722 24.4126C24.5917 21.5161 28.7 21.5169 28.8191 24.4126C28.819 25.6165 27.8441 26.596 26.6457 26.596Z" fill="black"/>
</svg>
