<svg width="61" height="61" viewBox="0 0 61 61" fill="none" xmlns="http://www.w3.org/2000/svg">
<path d="M5 11.5L30.5 2L54.5 11.5L45 15.5V26C42.8333 27.1667 36.9 29.8 30.5 31C24.1 32.2 16.8333 28.1667 14 26V15.5L5 11.5Z" fill="#4384F3"/>
<path d="M3.67199 12.976L13.2023 16.4416V25.5724C13.2023 27.0725 14.2065 29.1698 18.9906 30.6418C22.0764 31.5912 26.1456 32.1142 30.4488 32.1142C34.752 32.1142 38.8214 31.5913 41.9071 30.6418C46.6911 29.1698 47.6953 27.0725 47.6953 25.5724V16.4416L54.8318 13.8466V26.7618C54.8318 27.7472 55.6306 28.546 56.616 28.546C57.6013 28.546 58.4001 27.7472 58.4001 26.7618V11.2994C58.4001 10.5492 57.9307 9.87917 57.2257 9.62273L31.0585 0.107404C30.6647 -0.0358014 30.2329 -0.0358014 29.8391 0.107404L3.67199 9.62273C2.9669 9.87905 2.49756 10.5492 2.49756 11.2994C2.49756 12.0497 2.9669 12.7197 3.67199 12.976ZM44.1271 25.5208C43.9838 25.7953 43.0343 26.6439 40.2635 27.404C37.5795 28.1404 34.0939 28.546 30.4488 28.546C26.8037 28.546 23.3182 28.1404 20.6341 27.404C17.8634 26.6439 16.9139 25.7953 16.7705 25.5208V17.7393L29.8391 22.4915C30.2329 22.6347 30.6647 22.6347 31.0585 22.4915L44.1271 17.7392V25.5208ZM30.4488 3.68255L46.489 9.51532H30.4488C29.4635 9.51532 28.6647 10.3141 28.6647 11.2994C28.6647 12.2848 29.4635 13.0836 30.4488 13.0836H46.4889L30.4488 18.9163L9.50238 11.2994L30.4488 3.68255Z" fill="black"/>
<path d="M59.5988 39.7179C58.6043 38.0604 57.127 37.1099 55.5457 37.1099H5.35237C3.77116 37.1099 2.29391 38.0604 1.29932 39.7179C0.461493 41.1144 0 42.9338 0 44.8411C0 46.7483 0.461493 48.5677 1.29932 49.9642C2.29391 51.6217 3.77116 52.5723 5.35237 52.5723H25.0967V59.114C25.0967 59.6876 25.3724 60.2262 25.8376 60.5613C26.3029 60.8967 26.9009 60.988 27.4449 60.8066L30.449 59.8052L33.453 60.8066C33.9937 60.9873 34.5943 60.8978 35.0604 60.5613C35.5257 60.226 35.8014 59.6876 35.8014 59.114V52.5723H55.5457C57.1269 52.5723 58.6042 51.6217 59.5988 49.9642C60.4366 48.5676 60.8981 46.7482 60.8981 44.8411C60.8981 42.934 60.4366 41.1144 59.5988 39.7179ZM26.8808 46.6252C26.8808 44.6577 28.4815 43.0569 30.449 43.0569C32.4166 43.0569 34.0173 44.6577 34.0173 46.6252C34.0173 48.5927 32.4166 50.1934 30.449 50.1934C28.4815 50.1934 26.8808 48.5927 26.8808 46.6252ZM34.388 40.6781H51.0052C50.4784 41.9043 50.1935 43.3451 50.1935 44.8411C50.1935 46.337 50.4784 47.7778 51.0052 49.004H37.1764C37.4404 48.2594 37.5855 47.4591 37.5855 46.6252C37.5855 44.1453 36.3133 41.9576 34.388 40.6781ZM3.56825 44.8411C3.56825 42.2586 4.72341 40.6781 5.35237 40.6781H26.5102C24.5847 41.9576 23.3125 44.1453 23.3125 46.6252C23.3125 47.4591 23.4577 48.2594 23.7217 49.004H5.35237C4.72341 49.004 3.56825 47.4235 3.56825 44.8411ZM31.0133 56.232C30.6471 56.1099 30.2511 56.1099 29.8849 56.232L28.6649 56.6386V53.5358C29.2354 53.6832 29.8332 53.7617 30.449 53.7617C31.0649 53.7617 31.6627 53.6832 32.2332 53.5358V56.6386L31.0133 56.232ZM55.5457 49.004C54.9167 49.004 53.7616 47.4235 53.7616 44.8411C53.7616 42.2586 54.9167 40.6781 55.5457 40.6781C56.1747 40.6781 57.3298 42.2586 57.3298 44.8411C57.3298 47.4235 56.1747 49.004 55.5457 49.004Z" fill="black"/>
</svg>
