<svg width="61" height="61" viewBox="0 0 61 61" fill="none" xmlns="http://www.w3.org/2000/svg">
<path d="M27.5 18.5L39.5 31L59.5 35V1.5H27.5V18.5Z" fill="#4384F3"/>
<path d="M30 59.5L27.5 39V35C28.3333 36.3333 30.9 39 34.5 39H54H59.5V59.5H30Z" fill="#4384F3"/>
<path d="M58.8781 0H28.4291C27.4438 0 26.645 0.798811 26.645 1.78412C26.645 21.5859 26.6032 20.1445 26.7375 20.5464C26.8102 20.7649 26.9258 20.9652 27.063 21.1288C27.1483 21.2304 26.4889 20.5651 36.6352 30.7113L31.1369 29.8916C30.8566 27.0694 28.4692 24.8581 25.5745 24.8581C23.5094 24.8581 21.7038 25.9844 20.7357 27.6541L15.0003 26.349C17.3739 24.0687 17.2435 20.7099 15.0725 18.2233C12.4475 15.2165 7.5106 14.089 3.83875 15.6606C-0.223219 17.3995 -1.24302 21.8164 1.67271 25.156C2.84119 26.4946 4.50721 27.5018 6.40242 28.0274C6.60831 28.1096 5.74182 27.9015 16.9358 30.4489C5.81283 32.9802 6.61675 32.785 6.40242 32.8704C4.50709 33.3959 2.84119 34.4031 1.67271 35.7418C-2.16363 40.136 0.948355 45.9457 7.45196 45.9457C10.2344 45.9457 13.2064 44.8122 15.0725 42.6746C17.2492 40.1814 17.3684 36.8239 15.0003 34.5488L20.7363 33.2434C21.9251 35.2934 24.2765 36.3956 26.645 35.9346V59.1139C26.645 60.0993 27.4438 60.8981 28.4291 60.8981H58.8781C59.8634 60.8981 60.6622 60.0993 60.6622 59.1139V1.78412C60.6622 0.798811 59.8634 0 58.8781 0V0ZM32.7363 21.7663H39.9664V28.9964L32.7363 21.7663ZM41.7505 18.1981H30.2132V3.56825H57.094V33.7613L43.5347 31.7399V19.9822C43.5347 18.9969 42.7359 18.1981 41.7505 18.1981ZM51.2234 36.4939C46.0234 37.7988 40.6118 38.2652 35.2661 37.8479V37.848C32.7178 37.6495 30.9591 35.6823 30.7587 33.443L51.2234 36.4939ZM5.2431 18.941C7.488 17.98 10.7788 18.7308 12.3846 20.5701C14.7753 23.308 11.359 25.5118 7.69151 24.6753C4.0318 23.8402 1.89513 20.3741 5.2431 18.941ZM12.3846 40.328C10.779 42.1672 7.48776 42.9184 5.2431 41.9571C1.90441 40.5279 4.02097 37.0603 7.69163 36.2228C11.3517 35.3886 14.7797 37.5851 12.3846 40.328ZM23.5525 30.4484C23.5525 29.3335 24.4595 28.4264 25.5745 28.4264C26.6894 28.4264 27.5965 29.3335 27.5965 30.4484C27.5965 30.8496 27.5436 31.1117 27.3142 31.4736C26.9621 32.069 26.315 32.4704 25.5745 32.4704C24.4595 32.4704 23.5525 31.5634 23.5525 30.4484ZM30.2132 57.3298V39.4838C31.5377 40.585 33.1793 41.2643 34.9348 41.4012C42.6438 42.0031 50.2091 40.9034 57.094 38.4347V57.3298H30.2132Z" fill="black"/>
</svg>
