<svg width="61" height="54" viewBox="0 0 61 54" fill="none" xmlns="http://www.w3.org/2000/svg">
<path d="M44 6.5H39.5L38 2H11C9.00001 2.5 4.60005 4.4 3.00005 8C1.00005 12.5 0.50005 16 3.00005 20C5.00005 23.2 10.1667 23.3333 12.5 23H36.5L39.5 20H44V6.5Z" fill="#4384F3"/>
<path d="M59.1139 10.7047H46.6251V5.35237C46.6251 4.36706 45.8263 3.56825 44.841 3.56825H39.4886V1.78412C39.4886 0.798811 38.6898 0 37.7045 0H12.6078C5.65579 0 0 5.6025 0 12.4889C0 18.6528 4.53155 23.7872 10.4677 24.7969L7.57693 39.2507H5.47131C4.486 39.2507 3.68719 40.0495 3.68719 41.0348V51.7396C3.68719 52.7249 4.486 53.5237 5.47131 53.5237H26.8808C27.8661 53.5237 28.6649 52.7249 28.6649 51.7396V48.1713C28.6649 43.9847 25.7651 40.4643 21.8689 39.5085L23.3479 32.1142H30.449C31.0226 32.1142 31.561 31.8385 31.8963 31.3733C32.2316 30.908 32.3228 30.31 32.1416 29.766L30.5456 24.9777H37.7045C38.6898 24.9777 39.4886 24.1789 39.4886 23.1936V21.4095H44.841C45.8263 21.4095 46.6251 20.6107 46.6251 19.6254V14.273H59.1139C60.0993 14.273 60.8981 13.4742 60.8981 12.4889C60.8981 11.5035 60.0993 10.7047 59.1139 10.7047ZM14.0704 24.9765L21.1363 24.9777C20.9682 25.8179 18.4497 38.4104 18.2817 39.2507H11.2158L14.0704 24.9765ZM25.0967 48.1713V49.9554H7.25543V42.819H19.7392C19.7416 42.819 19.7439 42.8193 19.7462 42.8193C19.7476 42.8193 19.7491 42.8191 19.7505 42.8191C22.6989 42.8225 25.0967 45.2222 25.0967 48.1713ZM27.9736 28.546H24.0614L24.775 24.9777H26.7842L27.9736 28.546ZM35.9203 21.4095C34.7987 21.4095 12.6023 21.4092 12.5996 21.4092C12.599 21.4092 12.5983 21.4092 12.5977 21.4092C7.61785 21.4038 3.56825 17.4044 3.56825 12.4889C3.56825 7.57003 7.62332 3.56825 12.6078 3.56825H35.9203V21.4095ZM43.0568 17.8412H39.4886V7.13649H43.0568V17.8412Z" fill="black"/>
<path d="M56.807 6.61432C57.5038 5.91756 57.5038 4.78797 56.807 4.09121L53.2388 0.522969C52.5421 -0.173672 51.4124 -0.173672 50.7157 0.522969C50.0189 1.21973 50.0189 2.34932 50.7157 3.04608L54.2839 6.61432C54.9807 7.31108 56.1104 7.31096 56.807 6.61432Z" fill="black"/>
<path d="M53.2388 24.4556L56.807 20.8874C57.5038 20.1906 57.5038 19.061 56.807 18.3643C56.1104 17.6676 54.9807 17.6676 54.2839 18.3643L50.7157 21.9325C50.0189 22.6293 50.0189 23.7589 50.7157 24.4556C51.4124 25.1524 52.5421 25.1523 53.2388 24.4556Z" fill="black"/>
<path d="M12.6079 7.13672C11.6225 7.13672 10.8237 7.93553 10.8237 8.92084V12.4891C10.8237 13.4744 11.6225 14.2732 12.6079 14.2732C13.5932 14.2732 14.392 13.4744 14.392 12.4891V8.92084C14.392 7.93553 13.5932 7.13672 12.6079 7.13672Z" fill="black"/>
<path d="M19.7443 7.13672C18.759 7.13672 17.9602 7.93553 17.9602 8.92084V12.4891C17.9602 13.4744 18.759 14.2732 19.7443 14.2732C20.7296 14.2732 21.5285 13.4744 21.5285 12.4891V8.92084C21.5285 7.93553 20.7296 7.13672 19.7443 7.13672Z" fill="black"/>
<path d="M26.8808 7.13672C25.8955 7.13672 25.0967 7.93553 25.0967 8.92084V12.4891C25.0967 13.4744 25.8955 14.2732 26.8808 14.2732C27.8661 14.2732 28.6649 13.4744 28.6649 12.4891V8.92084C28.6649 7.93553 27.8661 7.13672 26.8808 7.13672Z" fill="black"/>
</svg>
