<svg width="61" height="62" viewBox="0 0 61 62" fill="none" xmlns="http://www.w3.org/2000/svg">
<path d="M19.5001 18.0001L30.5001 36.5001C33.5 31.8334 39.9 20.8 41.5 14C43.5 5.5 38 5.50013 34 2.00013C30 -1.49987 22.0001 5.00013 19.5001 8.50013C17.5001 11.3001 18.6667 16.0001 19.5001 18.0001Z" fill="#4384F3"/>
<path d="M58.741 16.9773L45.6473 19.7086L42.639 19.1712C43.3833 17.2093 43.7517 15.5888 43.7517 14.2894C43.7514 6.96156 37.784 1 30.449 1C23.114 1 17.1466 6.96156 17.1466 14.2893C17.1466 15.5888 17.515 17.2093 18.2593 19.171L15.251 19.7085L2.15711 16.9773C1.04398 16.7457 0 17.5953 0 18.7289V60.1082C0 61.245 1.04828 62.0912 2.15699 61.8597L15.2508 59.1296L30.1338 61.7871C30.3215 61.8208 30.549 61.8257 30.7642 61.7871L45.6472 59.1296L58.741 61.8597C59.8531 62.0914 60.898 61.2423 60.898 60.1082C60.898 58.9944 60.898 19.0091 60.898 18.7289C60.8981 17.5933 59.8518 16.7461 58.741 16.9773ZM57.3158 28.6312L47.4647 29.5403V22.9854L57.3158 20.9304V28.6312ZM57.3158 46.6117L47.4647 45.7028V33.1342L57.3158 32.2252V46.6117ZM3.58224 32.2252L13.7319 33.1617V45.6753L3.58224 46.6117V32.2252ZM28.6579 37.1092V46.6017L17.3142 45.705V33.1323L25.5231 32.4841C26.9247 34.6393 28.102 36.3249 28.6579 37.1092ZM35.375 32.4841L43.8824 33.156V45.6813L32.2402 46.6017V37.1092C32.7961 36.3249 33.9734 34.6391 35.375 32.4841ZM17.3142 49.2949L28.6579 50.1916V57.8884L17.3142 55.8627V49.2949ZM32.2402 50.1916L43.8824 49.2712V55.8093L32.2402 57.8884V50.1916ZM43.8824 23.0287V29.5661L37.5286 29.0643C38.8001 26.9736 40.0879 24.7198 41.1567 22.5417L43.8824 23.0287ZM30.449 4.57866C35.8088 4.57866 40.1692 8.93478 40.1692 14.2893C40.1692 18.7176 32.964 29.7374 30.449 33.4115C27.9306 29.7324 20.7289 18.7681 20.7289 14.2893C20.7289 8.9349 25.0893 4.57866 30.449 4.57866ZM23.3693 29.0642L17.3142 29.5423V22.9755L19.7412 22.5418C20.8099 24.7193 22.0985 26.9746 23.3693 29.0642ZM13.7319 23.0476V29.5678L3.58224 28.6312V20.9304L13.7319 23.0476ZM3.58224 50.2056L13.7319 49.2692V55.7904L3.58224 57.9066V50.2056ZM47.4647 55.8528V49.2968L57.3158 50.2058V57.9069L47.4647 55.8528Z" fill="black"/>
<path d="M30.4491 19.9376C33.4917 19.9376 35.9673 17.4646 35.9673 14.4249C35.9673 11.3852 33.4919 8.91211 30.4491 8.91211C27.4064 8.91211 24.9309 11.3852 24.9309 14.4249C24.9309 17.4646 27.4065 19.9376 30.4491 19.9376ZM30.4491 12.4908C31.5165 12.4908 32.3851 13.3584 32.3851 14.4249C32.3851 15.4914 31.5166 16.359 30.4491 16.359C29.3816 16.359 28.5131 15.4914 28.5131 14.4249C28.5131 13.3584 29.3817 12.4908 30.4491 12.4908Z" fill="black"/>
</svg>
