<svg width="50" height="50" viewBox="0 0 50 50" fill="none" xmlns="http://www.w3.org/2000/svg">
<rect x="50" y="50" width="50" height="50" rx="25" transform="rotate(180 50 50)" fill="white"/>
<path d="M32.3325 23.7044L32.3583 23.7101L21.3019 23.7101L24.7776 20.2267C24.9478 20.0566 25.0412 19.8262 25.0412 19.5844C25.0412 19.3426 24.9478 19.1138 24.7776 18.9434L24.2368 18.4023C24.0667 18.2322 23.8401 18.1382 23.5984 18.1382C23.3566 18.1382 23.1299 18.2315 22.9598 18.4016L17.0017 24.3592C16.831 24.5299 16.7376 24.7573 16.7383 24.9993C16.7376 25.2426 16.831 25.4701 17.0017 25.6406L22.9598 31.5987C23.1299 31.7686 23.3565 31.8621 23.5984 31.8621C23.8401 31.8621 24.0667 31.7685 24.2368 31.5987L24.7776 31.0576C24.9478 30.8878 25.0412 30.661 25.0412 30.4192C25.0412 30.1776 24.9478 29.9628 24.7776 29.7928L21.2626 26.2899L32.3449 26.2899C32.8429 26.2899 33.2613 25.8608 33.2613 25.363L33.2613 24.5977C33.2613 24.1 32.8305 23.7044 32.3325 23.7044Z" fill="black"/>
</svg>
