<svg width="54" height="33" viewBox="0 0 54 33" fill="none" xmlns="http://www.w3.org/2000/svg">
<mask id="mask0" mask-type="alpha" maskUnits="userSpaceOnUse" x="0" y="0" width="54" height="33">
<rect width="54" height="33" fill="#FF7E7E"/>
</mask>
<g mask="url(#mask0)">
<path d="M-26 0.605591C-12.8493 0.605591 -12.8493 -10 0.30137 -10C13.4521 -10 13.4521 0.605591 26.6027 0.605591C39.7534 0.605591 39.7534 -10 52.9041 -10C66.0548 -10 66.0548 0.605591 79.2055 0.605591C92.3562 0.605591 92.3562 -10 105.507 -10C118.658 -10 118.658 0.605591 131.808 0.605591C144.959 0.605591 144.959 -10 158.11 -10C171.26 -10 171.26 0.605591 184.411 0.605591C197.562 0.605591 197.562 -10 210.712 -10C223.863 -10 223.863 0.605591 237.014 0.605591C250.164 0.605591 250.164 -10 263.315 -10C276.466 -10 276.466 0.605591 289.616 0.605591C302.767 0.605591 302.767 -10 315.918 -10C329.068 -10 329.069 0.605591 342.219 0.605591C355.37 0.605591 355.37 -10 368.521 -10C381.671 -10 381.671 0.605591 394.822 0.605591C407.973 0.605591 407.973 -10 421.123 -10C434.274 -10 434.274 0.605591 447.425 0.605591C460.575 0.605591 460.575 -10 473.726 -10C486.877 -10 486.877 0.605591 500.027 0.605591C513.178 0.605591 513.178 -10 526.329 -10C539.479 -10 539.479 0.605591 552.63 0.605591C565.781 0.605591 565.781 -10 578.932 -10C592.082 -10 592.082 0.605591 605.233 0.605591C618.384 0.605591 618.384 -10 631.534 -10C644.685 -10 644.685 0.605591 657.836 0.605591C670.986 0.605591 670.986 -10 684.137 -10C697.288 -10 697.288 0.605591 710.438 0.605591C723.589 0.605591 723.589 -10 736.74 -10C749.89 -10 749.89 0.605591 763.041 0.605591C776.192 0.605591 776.192 -10 789.342 -10C802.493 -10 802.493 0.605591 815.644 0.605591C828.795 0.605591 828.795 -10 841.945 -10C855.096 -10 855.096 0.605591 868.247 0.605591C881.397 0.605591 881.397 -10 894.548 -10C907.699 -10 907.699 0.605591 920.849 0.605591C934 0.605591 934 -10 947.151 -10C960.301 -10 960.301 0.605591 973.452 0.605591C986.603 0.605591 986.603 -10 999.753 -10C1012.9 -10 1012.9 0.605591 1026.05 0.605591C1039.21 0.605591 1039.21 -10 1052.36 -10C1065.51 -10 1065.51 0.605591 1078.66 0.605591C1091.81 0.605591 1091.81 -10 1104.96 -10C1118.11 -10 1118.11 0.605591 1131.26 0.605591C1144.41 0.605591 1144.41 -10 1157.56 -10C1170.71 -10 1170.71 0.605591 1183.86 0.605591C1197.01 0.605591 1197.01 -10 1210.16 -10C1223.32 -10 1223.32 0.605591 1236.47 0.605591C1249.62 0.605591 1249.62 -10 1262.77 -10C1275.92 -10 1275.92 0.605591 1289.07 0.605591C1302.22 0.605591 1302.22 -10 1315.37 -10C1328.52 -10 1328.52 0.605591 1341.67 0.605591C1354.82 0.605591 1354.82 -10 1367.97 -10C1381.12 -10 1381.12 0.605591 1394.27 0.605591C1407.42 0.605591 1407.42 -10 1420.58 -10C1433.73 -10 1433.73 0.605591 1446.88 0.605591C1460.03 0.605591 1460.03 -10 1473.18 -10C1486.33 -10 1486.33 0.605591 1499.48 0.605591C1512.63 0.605591 1512.63 -10 1525.78 -10C1538.93 -10 1538.93 0.605591 1552.08 0.605591C1565.23 0.605591 1565.23 -10 1578.38 -10C1591.53 -10 1591.53 0.605591 1604.68 0.605591C1617.84 0.605591 1617.84 -10 1630.99 -10C1644.14 -10 1644.14 0.605591 1657.29 0.605591C1670.44 0.605591 1670.44 -10 1683.59 -10C1696.74 -10 1696.74 0.605591 1709.89 0.605591C1723.04 0.605591 1723.04 -10 1736.19 -10C1749.34 -10 1749.34 0.605591 1762.49 0.605591C1775.64 0.605591 1775.64 -10 1788.79 -10C1801.95 -10 1801.95 0.605591 1815.1 0.605591C1828.25 0.605591 1828.25 -10 1841.4 -10C1854.55 -10 1854.55 0.605591 1867.7 0.605591C1880.85 0.605591 1880.85 -10 1894 -10" stroke="#DADADA" stroke-miterlimit="10"/>
<path d="M-26 11.6056C-12.8493 11.6056 -12.8493 0.999957 0.30137 0.999957C13.4521 0.999957 13.4521 11.6056 26.6027 11.6056C39.7534 11.6056 39.7534 0.999957 52.9041 0.999957C66.0548 0.999957 66.0548 11.6056 79.2055 11.6056C92.3562 11.6056 92.3562 0.999957 105.507 0.999957C118.658 0.999957 118.658 11.6056 131.808 11.6056C144.959 11.6056 144.959 0.999957 158.11 0.999957C171.26 0.999957 171.26 11.6056 184.411 11.6056C197.562 11.6056 197.562 0.999957 210.712 0.999957C223.863 0.999957 223.863 11.6056 237.014 11.6056C250.164 11.6056 250.164 0.999957 263.315 0.999957C276.466 0.999957 276.466 11.6056 289.616 11.6056C302.767 11.6056 302.767 0.999957 315.918 0.999957C329.068 0.999957 329.069 11.6056 342.219 11.6056C355.37 11.6056 355.37 0.999957 368.521 0.999957C381.671 0.999957 381.671 11.6056 394.822 11.6056C407.973 11.6056 407.973 0.999957 421.123 0.999957C434.274 0.999957 434.274 11.6056 447.425 11.6056C460.575 11.6056 460.575 0.999957 473.726 0.999957C486.877 0.999957 486.877 11.6056 500.027 11.6056C513.178 11.6056 513.178 0.999957 526.329 0.999957C539.479 0.999957 539.479 11.6056 552.63 11.6056C565.781 11.6056 565.781 0.999957 578.932 0.999957C592.082 0.999957 592.082 11.6056 605.233 11.6056C618.384 11.6056 618.384 0.999957 631.534 0.999957C644.685 0.999957 644.685 11.6056 657.836 11.6056C670.986 11.6056 670.986 0.999957 684.137 0.999957C697.288 0.999957 697.288 11.6056 710.438 11.6056C723.589 11.6056 723.589 0.999957 736.74 0.999957C749.89 0.999957 749.89 11.6056 763.041 11.6056C776.192 11.6056 776.192 0.999957 789.342 0.999957C802.493 0.999957 802.493 11.6056 815.644 11.6056C828.795 11.6056 828.795 0.999957 841.945 0.999957C855.096 0.999957 855.096 11.6056 868.247 11.6056C881.397 11.6056 881.397 0.999957 894.548 0.999957C907.699 0.999957 907.699 11.6056 920.849 11.6056C934 11.6056 934 0.999957 947.151 0.999957C960.301 0.999957 960.301 11.6056 973.452 11.6056C986.603 11.6056 986.603 0.999957 999.753 0.999957C1012.9 0.999957 1012.9 11.6056 1026.05 11.6056C1039.21 11.6056 1039.21 0.999957 1052.36 0.999957C1065.51 0.999957 1065.51 11.6056 1078.66 11.6056C1091.81 11.6056 1091.81 0.999957 1104.96 0.999957C1118.11 0.999957 1118.11 11.6056 1131.26 11.6056C1144.41 11.6056 1144.41 0.999957 1157.56 0.999957C1170.71 0.999957 1170.71 11.6056 1183.86 11.6056C1197.01 11.6056 1197.01 0.999957 1210.16 0.999957C1223.32 0.999957 1223.32 11.6056 1236.47 11.6056C1249.62 11.6056 1249.62 0.999957 1262.77 0.999957C1275.92 0.999957 1275.92 11.6056 1289.07 11.6056C1302.22 11.6056 1302.22 0.999957 1315.37 0.999957C1328.52 0.999957 1328.52 11.6056 1341.67 11.6056C1354.82 11.6056 1354.82 0.999957 1367.97 0.999957C1381.12 0.999957 1381.12 11.6056 1394.27 11.6056C1407.42 11.6056 1407.42 0.999957 1420.58 0.999957C1433.73 0.999957 1433.73 11.6056 1446.88 11.6056C1460.03 11.6056 1460.03 0.999957 1473.18 0.999957C1486.33 0.999957 1486.33 11.6056 1499.48 11.6056C1512.63 11.6056 1512.63 0.999957 1525.78 0.999957C1538.93 0.999957 1538.93 11.6056 1552.08 11.6056C1565.23 11.6056 1565.23 0.999957 1578.38 0.999957C1591.53 0.999957 1591.53 11.6056 1604.68 11.6056C1617.84 11.6056 1617.84 0.999957 1630.99 0.999957C1644.14 0.999957 1644.14 11.6056 1657.29 11.6056C1670.44 11.6056 1670.44 0.999957 1683.59 0.999957C1696.74 0.999957 1696.74 11.6056 1709.89 11.6056C1723.04 11.6056 1723.04 0.999957 1736.19 0.999957C1749.34 0.999957 1749.34 11.6056 1762.49 11.6056C1775.64 11.6056 1775.64 0.999957 1788.79 0.999957C1801.95 0.999957 1801.95 11.6056 1815.1 11.6056C1828.25 11.6056 1828.25 0.999957 1841.4 0.999957C1854.55 0.999957 1854.55 11.6056 1867.7 11.6056C1880.85 11.6056 1880.85 0.999957 1894 0.999957" stroke="#DADADA" stroke-miterlimit="10"/>
<path d="M-26 22.6056C-12.8493 22.6056 -12.8493 12 0.30137 12C13.4521 12 13.4521 22.6056 26.6027 22.6056C39.7534 22.6056 39.7534 12 52.9041 12C66.0548 12 66.0548 22.6056 79.2055 22.6056C92.3562 22.6056 92.3562 12 105.507 12C118.658 12 118.658 22.6056 131.808 22.6056C144.959 22.6056 144.959 12 158.11 12C171.26 12 171.26 22.6056 184.411 22.6056C197.562 22.6056 197.562 12 210.712 12C223.863 12 223.863 22.6056 237.014 22.6056C250.164 22.6056 250.164 12 263.315 12C276.466 12 276.466 22.6056 289.616 22.6056C302.767 22.6056 302.767 12 315.918 12C329.068 12 329.069 22.6056 342.219 22.6056C355.37 22.6056 355.37 12 368.521 12C381.671 12 381.671 22.6056 394.822 22.6056C407.973 22.6056 407.973 12 421.123 12C434.274 12 434.274 22.6056 447.425 22.6056C460.575 22.6056 460.575 12 473.726 12C486.877 12 486.877 22.6056 500.027 22.6056C513.178 22.6056 513.178 12 526.329 12C539.479 12 539.479 22.6056 552.63 22.6056C565.781 22.6056 565.781 12 578.932 12C592.082 12 592.082 22.6056 605.233 22.6056C618.384 22.6056 618.384 12 631.534 12C644.685 12 644.685 22.6056 657.836 22.6056C670.986 22.6056 670.986 12 684.137 12C697.288 12 697.288 22.6056 710.438 22.6056C723.589 22.6056 723.589 12 736.74 12C749.89 12 749.89 22.6056 763.041 22.6056C776.192 22.6056 776.192 12 789.342 12C802.493 12 802.493 22.6056 815.644 22.6056C828.795 22.6056 828.795 12 841.945 12C855.096 12 855.096 22.6056 868.247 22.6056C881.397 22.6056 881.397 12 894.548 12C907.699 12 907.699 22.6056 920.849 22.6056C934 22.6056 934 12 947.151 12C960.301 12 960.301 22.6056 973.452 22.6056C986.603 22.6056 986.603 12 999.753 12C1012.9 12 1012.9 22.6056 1026.05 22.6056C1039.21 22.6056 1039.21 12 1052.36 12C1065.51 12 1065.51 22.6056 1078.66 22.6056C1091.81 22.6056 1091.81 12 1104.96 12C1118.11 12 1118.11 22.6056 1131.26 22.6056C1144.41 22.6056 1144.41 12 1157.56 12C1170.71 12 1170.71 22.6056 1183.86 22.6056C1197.01 22.6056 1197.01 12 1210.16 12C1223.32 12 1223.32 22.6056 1236.47 22.6056C1249.62 22.6056 1249.62 12 1262.77 12C1275.92 12 1275.92 22.6056 1289.07 22.6056C1302.22 22.6056 1302.22 12 1315.37 12C1328.52 12 1328.52 22.6056 1341.67 22.6056C1354.82 22.6056 1354.82 12 1367.97 12C1381.12 12 1381.12 22.6056 1394.27 22.6056C1407.42 22.6056 1407.42 12 1420.58 12C1433.73 12 1433.73 22.6056 1446.88 22.6056C1460.03 22.6056 1460.03 12 1473.18 12C1486.33 12 1486.33 22.6056 1499.48 22.6056C1512.63 22.6056 1512.63 12 1525.78 12C1538.93 12 1538.93 22.6056 1552.08 22.6056C1565.23 22.6056 1565.23 12 1578.38 12C1591.53 12 1591.53 22.6056 1604.68 22.6056C1617.84 22.6056 1617.84 12 1630.99 12C1644.14 12 1644.14 22.6056 1657.29 22.6056C1670.44 22.6056 1670.44 12 1683.59 12C1696.74 12 1696.74 22.6056 1709.89 22.6056C1723.04 22.6056 1723.04 12 1736.19 12C1749.34 12 1749.34 22.6056 1762.49 22.6056C1775.64 22.6056 1775.64 12 1788.79 12C1801.95 12 1801.95 22.6056 1815.1 22.6056C1828.25 22.6056 1828.25 12 1841.4 12C1854.55 12 1854.55 22.6056 1867.7 22.6056C1880.85 22.6056 1880.85 12 1894 12" stroke="#DADADA" stroke-miterlimit="10"/>
<path d="M-26 33.6056C-12.8493 33.6056 -12.8493 23 0.30137 23C13.4521 23 13.4521 33.6056 26.6027 33.6056C39.7534 33.6056 39.7534 23 52.9041 23C66.0548 23 66.0548 33.6056 79.2055 33.6056C92.3562 33.6056 92.3562 23 105.507 23C118.658 23 118.658 33.6056 131.808 33.6056C144.959 33.6056 144.959 23 158.11 23C171.26 23 171.26 33.6056 184.411 33.6056C197.562 33.6056 197.562 23 210.712 23C223.863 23 223.863 33.6056 237.014 33.6056C250.164 33.6056 250.164 23 263.315 23C276.466 23 276.466 33.6056 289.616 33.6056C302.767 33.6056 302.767 23 315.918 23C329.068 23 329.069 33.6056 342.219 33.6056C355.37 33.6056 355.37 23 368.521 23C381.671 23 381.671 33.6056 394.822 33.6056C407.973 33.6056 407.973 23 421.123 23C434.274 23 434.274 33.6056 447.425 33.6056C460.575 33.6056 460.575 23 473.726 23C486.877 23 486.877 33.6056 500.027 33.6056C513.178 33.6056 513.178 23 526.329 23C539.479 23 539.479 33.6056 552.63 33.6056C565.781 33.6056 565.781 23 578.932 23C592.082 23 592.082 33.6056 605.233 33.6056C618.384 33.6056 618.384 23 631.534 23C644.685 23 644.685 33.6056 657.836 33.6056C670.986 33.6056 670.986 23 684.137 23C697.288 23 697.288 33.6056 710.438 33.6056C723.589 33.6056 723.589 23 736.74 23C749.89 23 749.89 33.6056 763.041 33.6056C776.192 33.6056 776.192 23 789.342 23C802.493 23 802.493 33.6056 815.644 33.6056C828.795 33.6056 828.795 23 841.945 23C855.096 23 855.096 33.6056 868.247 33.6056C881.397 33.6056 881.397 23 894.548 23C907.699 23 907.699 33.6056 920.849 33.6056C934 33.6056 934 23 947.151 23C960.301 23 960.301 33.6056 973.452 33.6056C986.603 33.6056 986.603 23 999.753 23C1012.9 23 1012.9 33.6056 1026.05 33.6056C1039.21 33.6056 1039.21 23 1052.36 23C1065.51 23 1065.51 33.6056 1078.66 33.6056C1091.81 33.6056 1091.81 23 1104.96 23C1118.11 23 1118.11 33.6056 1131.26 33.6056C1144.41 33.6056 1144.41 23 1157.56 23C1170.71 23 1170.71 33.6056 1183.86 33.6056C1197.01 33.6056 1197.01 23 1210.16 23C1223.32 23 1223.32 33.6056 1236.47 33.6056C1249.62 33.6056 1249.62 23 1262.77 23C1275.92 23 1275.92 33.6056 1289.07 33.6056C1302.22 33.6056 1302.22 23 1315.37 23C1328.52 23 1328.52 33.6056 1341.67 33.6056C1354.82 33.6056 1354.82 23 1367.97 23C1381.12 23 1381.12 33.6056 1394.27 33.6056C1407.42 33.6056 1407.42 23 1420.58 23C1433.73 23 1433.73 33.6056 1446.88 33.6056C1460.03 33.6056 1460.03 23 1473.18 23C1486.33 23 1486.33 33.6056 1499.48 33.6056C1512.63 33.6056 1512.63 23 1525.78 23C1538.93 23 1538.93 33.6056 1552.08 33.6056C1565.23 33.6056 1565.23 23 1578.38 23C1591.53 23 1591.53 33.6056 1604.68 33.6056C1617.84 33.6056 1617.84 23 1630.99 23C1644.14 23 1644.14 33.6056 1657.29 33.6056C1670.44 33.6056 1670.44 23 1683.59 23C1696.74 23 1696.74 33.6056 1709.89 33.6056C1723.04 33.6056 1723.04 23 1736.19 23C1749.34 23 1749.34 33.6056 1762.49 33.6056C1775.64 33.6056 1775.64 23 1788.79 23C1801.95 23 1801.95 33.6056 1815.1 33.6056C1828.25 33.6056 1828.25 23 1841.4 23C1854.55 23 1854.55 33.6056 1867.7 33.6056C1880.85 33.6056 1880.85 23 1894 23" stroke="#DADADA" stroke-miterlimit="10"/>
</g>
</svg>
