<svg width="54" height="54" viewBox="0 0 54 54" fill="none" xmlns="http://www.w3.org/2000/svg">
<path d="M44 22C40.8 21.6 33.6667 13.1667 30.5 9C24.6667 9 12.5 10.3 10.5 15.5C8.00005 22 7.50005 36 13 42C18.5 48 33 46 39.5 42C46 38 48 22.5 44 22Z" fill="#4384F3"/>
<path d="M32.8068 34.3641H20.3485C19.4885 34.3641 18.7913 35.0614 18.7913 35.9214C18.7913 36.7815 19.4885 37.4787 20.3485 37.4787H32.8068C33.6669 37.4787 34.3641 36.7815 34.3641 35.9214C34.3641 35.0614 33.6669 34.3641 32.8068 34.3641Z" fill="black"/>
<path d="M33.2741 20.3953L29.6118 19.8631L27.9741 16.5447C27.7117 16.0131 27.1703 15.6766 26.5776 15.6766C25.9849 15.6766 25.4435 16.0131 25.1812 16.5448L23.5434 19.8632L19.8812 20.3954C19.2946 20.4807 18.8073 20.8916 18.6241 21.4553C18.4409 22.019 18.5937 22.6379 19.0181 23.0516L21.6681 25.6348L21.0425 29.2821C20.9423 29.8663 21.1825 30.4568 21.662 30.8053C22.1416 31.1537 22.7773 31.1997 23.302 30.9238L26.5776 29.2017L29.8532 30.9237C30.3799 31.2007 31.0157 31.1521 31.4933 30.8052C31.9728 30.4567 32.213 29.8663 32.1127 29.282L31.4871 25.6347L34.1371 23.0515C34.5615 22.6378 34.7143 22.0189 34.5311 21.4552C34.348 20.8915 33.8606 20.4806 33.2741 20.3953ZM28.7269 23.9758C28.3599 24.3336 28.1924 24.8491 28.279 25.3542L28.5096 26.6985L27.3024 26.0638C27.0755 25.9446 26.8266 25.885 26.5777 25.885C26.3289 25.885 26.0799 25.9446 25.8531 26.0638L24.6459 26.6985L24.8764 25.3542C24.963 24.8491 24.7956 24.3336 24.4286 23.9758L23.4518 23.0238L24.8016 22.8277C25.3089 22.754 25.7473 22.4355 25.9741 21.9758L26.5776 20.7527L27.1812 21.9758C27.4081 22.4354 27.8466 22.754 28.3538 22.8277L29.7035 23.0238L28.7269 23.9758Z" fill="black"/>
<path d="M52.4823 22.3509L30.8045 0.673059C30.5547 0.422959 30.2248 0.270137 29.8971 0.229025C28.6514 0.0727772 27.5966 0 26.5777 0C11.9435 0 0 11.9443 0 26.5777C0 41.2119 11.9443 53.1554 26.5777 53.1554C41.2119 53.1554 53.1554 41.2111 53.1554 26.5777C53.1554 25.5588 53.0826 24.504 52.9264 23.2583C52.8852 22.9306 52.7329 22.6012 52.4823 22.3509ZM43.8117 26.5777C43.8117 36.0806 36.0806 43.8117 26.5777 43.8117C17.0748 43.8117 9.34372 36.0806 9.34372 26.5777C9.34372 17.0748 17.0748 9.34372 26.5777 9.34372C27.5844 9.34372 28.588 9.43249 29.5723 9.60566C31.9379 16.0423 37.1102 21.2164 43.5496 23.583C43.7229 24.5673 43.8117 25.571 43.8117 26.5777ZM31.7656 6.03885L47.1165 21.3897C39.5312 19.655 33.5004 13.6242 31.7656 6.03885ZM26.5777 50.0408C13.6401 50.0408 3.11457 39.5153 3.11457 26.5777C3.11457 13.6401 13.6401 3.11457 26.5777 3.11457C27.0943 3.11457 27.6263 3.13669 28.2009 3.18278C28.2744 4.24859 28.4203 5.30111 28.6354 6.33473C27.9529 6.26579 27.2658 6.22915 26.5777 6.22915C15.3861 6.22915 6.22915 15.3874 6.22915 26.5777C6.22915 31.9852 8.35339 37.0876 12.2106 40.9448C16.0678 44.802 21.1702 46.9262 26.5777 46.9262C37.7693 46.9262 46.9262 37.7679 46.9262 26.5777C46.9262 25.8896 46.8896 25.2026 46.8207 24.52C47.8543 24.7351 48.9068 24.881 49.9726 24.9545C50.0187 25.5291 50.0408 26.0611 50.0408 26.5777C50.0408 39.5153 39.5153 50.0408 26.5777 50.0408Z" fill="black"/>
</svg>
