<svg width="62" height="62" viewBox="0 0 62 62" fill="none" xmlns="http://www.w3.org/2000/svg">
<path d="M17.5001 14.5C21.1001 9.30005 31.3334 10 36.0001 11C39.2002 18.6001 48.0001 24.1667 52 26C52.3333 28 52.8 33.1 52 37.5C51 43 44 51 32 52C20 53 17.5001 48.5 10.5001 37.5C3.50011 26.5 13.0001 21 17.5001 14.5Z" fill="#4384F3"/>
<path d="M38.1274 39.9375H23.6487C22.6492 39.9375 21.8389 40.7478 21.8389 41.7473C21.8389 42.7469 22.6492 43.5572 23.6487 43.5572H38.1274C39.127 43.5572 39.9373 42.7469 39.9373 41.7473C39.9373 40.7478 39.127 39.9375 38.1274 39.9375Z" fill="black"/>
<path d="M38.6704 23.7032L34.4142 23.0847L32.5109 19.228C32.206 18.6103 31.5768 18.2192 30.8879 18.2192C30.1991 18.2192 29.5699 18.6103 29.265 19.2282L27.3616 23.0848L23.1055 23.7033C22.4238 23.8024 21.8574 24.2799 21.6446 24.9351C21.4316 25.5902 21.6092 26.3095 22.1025 26.7903L25.1822 29.7923L24.4551 34.0312C24.3387 34.7102 24.6178 35.3965 25.1751 35.8014C25.7325 36.2063 26.4713 36.2598 27.0811 35.9392L30.8879 33.9377L34.6947 35.939C35.3068 36.261 36.0457 36.2045 36.6008 35.8013C37.1581 35.3963 37.4373 34.7102 37.3207 34.0311L36.5936 29.7922L39.6734 26.7902C40.1666 26.3094 40.3442 25.5901 40.1313 24.935C39.9184 24.2798 39.3521 23.8022 38.6704 23.7032ZM33.3857 27.8644C32.9592 28.2802 32.7646 28.8792 32.8652 29.4663L33.1332 31.0286L31.7302 30.291C31.4666 30.1524 31.1773 30.0831 30.888 30.0831C30.5988 30.0831 30.3095 30.1524 30.0459 30.291L28.6429 31.0286L28.9109 29.4663C29.0115 28.8792 28.8169 28.2802 28.3903 27.8644L27.2552 26.758L28.8239 26.53C29.4134 26.4444 29.9229 26.0742 30.1866 25.5399L30.8879 24.1185L31.5894 25.5399C31.8531 26.0741 32.3627 26.4444 32.9521 26.53L34.5208 26.758L33.3857 27.8644Z" fill="black"/>
<path d="M60.9937 25.9757L35.8003 0.782214C35.51 0.491553 35.1265 0.313947 34.7457 0.266168C33.298 0.08458 32.0721 0 30.888 0C13.8804 0 0 13.8814 0 30.888C0 47.8956 13.8814 61.776 30.888 61.776C47.8956 61.776 61.776 47.8946 61.776 30.888C61.776 29.7039 61.6914 28.478 61.5098 27.0302C61.462 26.6494 61.285 26.2666 60.9937 25.9757ZM50.9169 30.888C50.9169 41.932 41.932 50.9169 30.888 50.9169C19.844 50.9169 10.8591 41.932 10.8591 30.888C10.8591 19.844 19.844 10.8591 30.888 10.8591C32.058 10.8591 33.2244 10.9622 34.3682 11.1635C37.1175 18.644 43.1287 24.6572 50.6124 27.4077C50.8137 28.5516 50.9169 29.718 50.9169 30.888ZM36.9173 7.01821L54.7578 24.8587C45.9422 22.8426 38.9333 15.8337 36.9173 7.01821ZM30.888 58.1563C15.8522 58.1563 3.61969 45.9238 3.61969 30.888C3.61969 15.8522 15.8522 3.61969 30.888 3.61969C31.4884 3.61969 32.1066 3.64538 32.7744 3.69896C32.8599 4.93761 33.0294 6.16082 33.2794 7.36208C32.4862 7.28196 31.6877 7.23937 30.888 7.23937C17.8814 7.23937 7.23937 17.8829 7.23937 30.888C7.23937 37.1725 9.70812 43.1024 14.1909 47.5851C18.6736 52.0678 24.6035 54.5366 30.888 54.5366C43.8946 54.5366 54.5366 43.893 54.5366 30.888C54.5366 30.0883 54.494 29.2899 54.4139 28.4966C55.6151 28.7466 56.8383 28.9161 58.077 29.0015C58.1306 29.6694 58.1563 30.2876 58.1563 30.888C58.1563 45.9238 45.9238 58.1563 30.888 58.1563Z" fill="black"/>
</svg>
