<svg width="50" height="50" viewBox="0 0 50 50" fill="none" xmlns="http://www.w3.org/2000/svg">
<rect width="50" height="50" rx="25" fill="white"/>
<path d="M17.6675 26.2956L17.6417 26.2899L28.6981 26.2899L25.2224 29.7733C25.0522 29.9434 24.9588 30.1738 24.9588 30.4156C24.9588 30.6574 25.0522 30.8862 25.2224 31.0566L25.7632 31.5977C25.9333 31.7678 26.1599 31.8618 26.4016 31.8618C26.6434 31.8618 26.8701 31.7685 27.0402 31.5984L32.9983 25.6408C33.169 25.4701 33.2624 25.2427 33.2617 25.0007C33.2624 24.7574 33.169 24.5299 32.9983 24.3594L27.0402 18.4013C26.8701 18.2314 26.6435 18.1379 26.4016 18.1379C26.1599 18.1379 25.9333 18.2315 25.7632 18.4013L25.2224 18.9424C25.0522 19.1122 24.9588 19.339 24.9588 19.5808C24.9588 19.8224 25.0522 20.0372 25.2224 20.2072L28.7374 23.7101L17.6551 23.71C17.1571 23.71 16.7387 24.1392 16.7387 24.637L16.7387 25.4022C16.7387 25.9 17.1695 26.2956 17.6675 26.2956Z" fill="black"/>
</svg>
