<svg width="40" height="31" viewBox="0 0 40 31" fill="none" xmlns="http://www.w3.org/2000/svg">
<path d="M13.68 13.68C15.1733 14.3733 16.32 15.4133 17.12 16.8C17.9733 18.1333 18.4 19.7067 18.4 21.52C18.4 24.1867 17.5467 26.3467 15.84 28C14.1333 29.6533 11.9467 30.48 9.28 30.48C6.61333 30.48 4.42667 29.6533 2.72 28C1.01333 26.3467 0.16 24.1867 0.16 21.52C0.16 20.2933 0.32 19.0667 0.64 17.84C0.96 16.6133 1.68 14.8 2.8 12.4L7.92 0.639997H17.44L13.68 13.68ZM34.64 13.68C36.1333 14.3733 37.28 15.4133 38.08 16.8C38.9333 18.1333 39.36 19.7067 39.36 21.52C39.36 24.1867 38.5067 26.3467 36.8 28C35.0933 29.6533 32.9067 30.48 30.24 30.48C27.5733 30.48 25.3867 29.6533 23.68 28C21.9733 26.3467 21.12 24.1867 21.12 21.52C21.12 20.2933 21.28 19.0667 21.6 17.84C21.92 16.6133 22.64 14.8 23.76 12.4L28.88 0.639997H38.4L34.64 13.68Z" fill="#4384F3"/>
</svg>
