<?xml version="1.0" encoding="utf-8"?>
<!-- Generator: Adobe Illustrator 21.0.0, SVG Export Plug-In . SVG Version: 6.00 Build 0)  -->
<svg version="1.1" id="Layer_1" xmlns="http://www.w3.org/2000/svg" xmlns:xlink="http://www.w3.org/1999/xlink" x="0px" y="0px"
	 viewBox="0 0 54 33" style="enable-background:new 0 0 54 33;" xml:space="preserve">
<style type="text/css">
	.st0{fill:#DADADA;}
</style>
<g>
	<path class="st0" d="M26.6,33.1c0.8,0,1.5,0,2.2-0.1h-4.3C25.1,33.1,25.8,33.1,26.6,33.1z"/>
	<path class="st0" d="M33.2,0h-4.5c-0.7,0.1-1.4,0.1-2.1,0.1c-0.8,0-1.5,0-2.1-0.1H20c1.8,0.7,3.9,1.1,6.6,1.1
		C29.3,1.1,31.4,0.7,33.2,0z"/>
	<path class="st0" d="M52.9,0.5c-6.8,0-10.2,2.8-13.5,5.4c-3.3,2.7-6.4,5.2-12.8,5.2c-6.4,0-9.5-2.5-12.8-5.2
		C10.5,3.3,7.1,0.5,0.3,0.5c-0.1,0-0.2,0-0.3,0v1c0.1,0,0.2,0,0.3,0c6.4,0,9.5,2.5,12.8,5.2c3.3,2.7,6.7,5.4,13.5,5.4
		c6.8,0,10.2-2.8,13.5-5.4c3.3-2.7,6.4-5.2,12.8-5.2c0.4,0,0.7,0,1.1,0v-1C53.6,0.5,53.3,0.5,52.9,0.5z"/>
	<path class="st0" d="M39.4,16.9c-3.3,2.7-6.4,5.2-12.8,5.2c-6.4,0-9.5-2.5-12.8-5.2c-3.3-2.7-6.7-5.4-13.5-5.4c-0.1,0-0.2,0-0.3,0
		v1c0.1,0,0.2,0,0.3,0c6.4,0,9.5,2.5,12.8,5.2c3.3,2.7,6.7,5.4,13.5,5.4c6.8,0,10.2-2.8,13.5-5.4c3.3-2.7,6.4-5.2,12.8-5.2
		c0.4,0,0.7,0,1.1,0v-1c-0.4,0-0.7,0-1.1,0C46.2,11.5,42.7,14.3,39.4,16.9z"/>
	<path class="st0" d="M0.3,22.5c-0.1,0-0.2,0-0.3,0v1c0.1,0,0.2,0,0.3,0c6.4,0,9.5,2.5,12.8,5.2c2,1.6,4.1,3.3,6.9,4.3h4.4
		c-5-0.5-7.8-2.7-10.7-5.1C10.5,25.3,7.1,22.5,0.3,22.5z"/>
	<path class="st0" d="M39.4,27.9c-2.9,2.4-5.7,4.6-10.7,5.1h4.4c2.8-1,4.9-2.7,6.9-4.3c3.3-2.7,6.4-5.2,12.8-5.2c0.4,0,0.7,0,1.1,0
		v-1c-0.4,0-0.7,0-1.1,0C46.2,22.5,42.7,25.3,39.4,27.9z"/>
</g>
</svg>
