<?xml version="1.0" encoding="utf-8"?>
<!-- Generator: Adobe Illustrator 21.0.0, SVG Export Plug-In . SVG Version: 6.00 Build 0)  -->
<svg version="1.1" id="Layer_1" xmlns="http://www.w3.org/2000/svg" xmlns:xlink="http://www.w3.org/1999/xlink" x="0px" y="0px"
	 viewBox="0 0 54 47" style="enable-background:new 0 0 54 47;" xml:space="preserve">
<style type="text/css">
	.st0{fill:#DADADA;}
</style>
<g>
	<polygon class="st0" points="53.1,12.6 52.6,12.1 41.5,1 41,0.5 40.5,0 39.1,0 39.6,0.5 40.1,1 52.6,13.5 53.1,14 53.6,14.5 
		53.6,13.1 	"/>
	<polygon class="st0" points="52.6,30 23.7,1 23.2,0.5 22.7,0 21.2,0 21.7,0.5 22.2,1 52.6,31.4 53.1,31.9 53.6,32.4 53.6,31 
		53.1,30.5 	"/>
	<polygon class="st0" points="50.8,46 5.8,1 5.3,0.5 4.8,0 3.4,0 3.9,0.5 4.4,1 49.4,46 49.9,46.5 50.4,47 51.8,47 51.3,46.5 	"/>
	<polygon class="st0" points="32.9,46 1,14.1 0.5,13.6 0,13.1 0,14.5 0.5,15 1,15.5 31.5,46 32,46.5 32.5,47 33.9,47 33.4,46.5 	"/>
	<polygon class="st0" points="15,46 1,32 0.5,31.5 0,31 0,32.4 0.5,32.9 1,33.4 13.6,46 14.1,46.5 14.6,47 16,47 15.5,46.5 	"/>
</g>
</svg>
