<?xml version="1.0" encoding="utf-8"?>
<!-- Generator: Adobe Illustrator 21.0.0, SVG Export Plug-In . SVG Version: 6.00 Build 0)  -->
<svg version="1.1" id="Layer_1" xmlns="http://www.w3.org/2000/svg" xmlns:xlink="http://www.w3.org/1999/xlink" x="0px" y="0px"
	 viewBox="0 0 144 145" style="enable-background:new 0 0 144 145;" xml:space="preserve">
<style type="text/css">
	.st0{fill:#FFFFFF;}
</style>
<path class="st0" d="M121,48c0-12.7,10.3-23,23-23v-2c-12.7,0-23-10.3-23-23c0,0,0,0,0,0h-2c0,0,0,0,0,0c0,12.7-10.3,23-23,23
	S73,12.7,73,0c0,0,0,0,0,0h-2c0,0,0,0,0,0c0,12.7-10.3,23-23,23S25,12.7,25,0c0,0,0,0,0,0h-2c0,0,0,0,0,0c0,12.7-10.3,23-23,23v2
	c12.7,0,23,10.3,23,23S12.7,71,0,71v2c12.7,0,23,10.3,23,23s-10.3,23-23,23v2c12.7,0,23,10.3,23,23c0,0.3,0,0.7,0,1H25
	c0-0.3,0-0.7,0-1c0-12.7,10.3-23,23-23s23,10.3,23,23c0,0.3,0,0.7,0,1H73c0-0.3,0-0.7,0-1c0-12.7,10.3-23,23-23s23,10.3,23,23
	c0,0.3,0,0.7,0,1h2.1c0-0.3,0-0.7,0-1c0-12.7,10.3-23,23-23v-2c-12.7,0-23-10.3-23-23s10.3-23,23-23v-2C131.3,71,121,60.7,121,48z
	 M120,7c2.4,8.2,8.8,14.6,17,17c-8.2,2.4-14.6,8.8-17,17c-2.4-8.2-8.8-14.6-17-17C111.2,21.6,117.6,15.2,120,7z M119,48
	c0,12.7-10.3,23-23,23S73,60.7,73,48s10.3-23,23-23S119,35.3,119,48z M89,72c-8.2,2.4-14.6,8.8-17,17c-2.4-8.2-8.8-14.6-17-17
	c8.2-2.4,14.6-8.8,17-17C74.4,63.2,80.8,69.6,89,72z M72,7c2.4,8.2,8.8,14.6,17,17c-8.2,2.4-14.6,8.8-17,17c-2.4-8.2-8.8-14.6-17-17
	C63.2,21.6,69.6,15.2,72,7z M71,48c0,12.7-10.3,23-23,23S25,60.7,25,48s10.3-23,23-23S71,35.3,71,48z M7,24c8.2-2.4,14.6-8.8,17-17
	c2.4,8.2,8.8,14.6,17,17c-8.2,2.4-14.6,8.8-17,17C21.6,32.8,15.2,26.4,7,24z M7,72c8.2-2.4,14.6-8.8,17-17c2.4,8.2,8.8,14.6,17,17
	c-8.2,2.4-14.6,8.8-17,17C21.6,80.8,15.2,74.4,7,72z M24,137c-2.4-8.2-8.8-14.6-17-17c8.2-2.4,14.6-8.8,17-17
	c2.4,8.2,8.8,14.6,17,17C32.8,122.4,26.4,128.8,24,137z M25,96c0-12.7,10.3-23,23-23s23,10.3,23,23s-10.3,23-23,23S25,108.7,25,96z
	 M72,137c-2.4-8.2-8.8-14.6-17-17c8.2-2.4,14.6-8.8,17-17c2.4,8.2,8.8,14.6,17,17C80.8,122.4,74.4,128.8,72,137z M73,96
	c0-12.7,10.3-23,23-23s23,10.3,23,23s-10.3,23-23,23S73,108.7,73,96z M137,120c-8.2,2.4-14.6,8.8-17,17c-2.4-8.2-8.8-14.6-17-17
	c8.2-2.4,14.6-8.8,17-17C122.4,111.2,128.8,117.6,137,120z M120,89c-2.4-8.2-8.8-14.6-17-17c8.2-2.4,14.6-8.8,17-17
	c2.4,8.2,8.8,14.6,17,17C128.8,74.4,122.4,80.8,120,89z"/>
</svg>
